M48
; DRILL file {KiCad (5.1.5)-3} date 03.08.2020 13:17:49
; FORMAT={-:-/ absolute / inch / decimal}
; #@! TF.CreationDate,2020-08-03T13:17:49+02:00
; #@! TF.GenerationSoftware,Kicad,Pcbnew,(5.1.5)-3
; #@! TF.FileFunction,Plated,1,12,PTH
FMAT,2
INCH
T1C0.0060
T2C0.0138
T3C0.0236
T4C0.0256
T5C0.0276
T6C0.0315
T7C0.0354
T8C0.0374
T9C0.0394
T10C0.0402
T11C0.0413
T12C0.0433
T13C0.0441
T14C0.0512
T15C0.0630
T16C0.0700
T17C0.1063
T18C0.1181
%
G90
G05
T1
X5.196Y-7.066
X5.2Y-7.024
X5.206Y-4.689
X5.259Y-6.808
X5.302Y-7.259
X5.345Y-6.275
X5.345Y-6.545
X5.37Y-6.275
X5.372Y-6.631
X5.382Y-4.5388
X5.382Y-4.5612
X5.383Y-6.842
X5.3855Y-4.51
X5.3885Y-4.5905
X5.396Y-6.548
X5.397Y-6.275
X5.422Y-6.547
X5.423Y-6.242
X5.4285Y-7.1935
X5.433Y-7.056
X5.451Y-6.242
X5.466Y-5.575
X5.467Y-7.027
X5.467Y-7.133
X5.468Y-7.161
X5.468Y-7.265
X5.469Y-7.293
X5.4895Y-4.7365
X5.4975Y-6.898
X5.5Y-7.012
X5.52Y-4.67
X5.52Y-6.971
X5.522Y-7.011
X5.535Y-7.346
X5.545Y-6.913
X5.552Y-5.471
X5.5685Y-4.922
X5.576Y-4.515
X5.588Y-4.411
X5.589Y-4.6
X5.591Y-4.48
X5.602Y-4.868
X5.611Y-7.507
X5.612Y-7.481
X5.615Y-5.503
X5.621Y-5.738
X5.6305Y-4.632
X5.633Y-4.349
X5.635Y-4.311
X5.642Y-4.6495
X5.6446Y-7.071
X5.658Y-5.708
X5.658Y-7.154
X5.659Y-6.7365
X5.662Y-7.288
X5.663Y-6.854
X5.663Y-5.561
X5.664Y-7.5541
X5.669Y-4.9505
X5.674Y-6.888
X5.678Y-7.051
X5.6845Y-5.044
X5.685Y-7.4795
X5.685Y-7.5075
X5.6855Y-5.0165
X5.6866Y-7.4598
X5.701Y-7.533
X5.7086Y-7.568
X5.71Y-6.3914
X5.7166Y-6.7365
X5.722Y-6.76
X5.722Y-7.471
X5.74Y-4.5175
X5.742Y-6.755
X5.756Y-4.454
X5.761Y-6.766
X5.768Y-4.666
X5.7685Y-4.6945
X5.783Y-4.5388
X5.783Y-4.5612
X5.791Y-4.2695
X5.7938Y-7.2682
X5.8045Y-4.501
X5.805Y-6.378
X5.814Y-6.161
X5.815Y-7.598
X5.821Y-5.178
X5.828Y-6.065
X5.835Y-8.103
X5.84Y-6.206
X5.84Y-7.363
X5.842Y-4.2495
X5.857Y-4.334
X5.8582Y-4.3092
X5.86Y-6.24
X5.8655Y-5.088
X5.876Y-6.204
X5.878Y-7.467
X5.886Y-5.486
X5.888Y-5.412
X5.8894Y-6.247
X5.894Y-7.328
X5.898Y-8.216
X5.913Y-7.09
X5.9145Y-5.09
X5.918Y-6.759
X5.919Y-7.312
X5.9195Y-4.268
X5.926Y-8.164
X5.934Y-8.187
X5.934Y-8.249
X5.937Y-6.758
X5.938Y-7.2815
X5.939Y-7.228
X5.941Y-8.0
X5.9515Y-7.5955
X5.952Y-8.142
X5.956Y-7.209
X5.958Y-6.757
X5.959Y-4.7565
X5.9595Y-4.7835
X5.971Y-4.086
X5.9725Y-4.1605
X5.9795Y-4.3565
X5.98Y-7.999
X5.9905Y-7.599
X6.0Y-6.581
X6.003Y-6.305
X6.014Y-4.8285
X6.019Y-6.364
X6.02Y-6.417
X6.028Y-4.3
X6.0345Y-4.1585
X6.0345Y-4.87
X6.0345Y-4.87
X6.038Y-6.287
X6.038Y-8.108
X6.039Y-4.77
X6.0405Y-4.357
X6.0415Y-7.4645
X6.043Y-4.326
X6.0502Y-6.379
X6.052Y-6.703
X6.0545Y-4.1855
X6.056Y-7.36
X6.066Y-6.275
X6.0735Y-4.0805
X6.077Y-7.361
X6.0785Y-4.357
X6.0785Y-4.739
X6.0794Y-6.048
X6.084Y-6.333
X6.086Y-7.999
X6.089Y-5.738
X6.098Y-6.434
X6.0985Y-4.7385
X6.0985Y-4.7385
X6.1074Y-7.029
X6.1108Y-7.0582
X6.1115Y-4.8395
X6.112Y-6.248
X6.115Y-6.711
X6.118Y-6.739
X6.131Y-6.913
X6.137Y-4.9865
X6.1375Y-4.927
X6.147Y-6.933
X6.15Y-4.8725
X6.1514Y-7.195
X6.1545Y-7.1705
X6.156Y-6.972
X6.166Y-4.118
X6.1665Y-4.1925
X6.17Y-5.0225
X6.177Y-4.23
X6.184Y-4.8395
X6.186Y-6.564
X6.187Y-6.712
X6.187Y-6.739
X6.194Y-4.1195
X6.194Y-4.191
X6.195Y-4.7395
X6.1965Y-4.439
X6.1965Y-4.439
X6.1965Y-4.58
X6.197Y-8.023
X6.2235Y-4.44
X6.2235Y-4.5795
X6.225Y-4.906
X6.2265Y-4.948
X6.229Y-7.428
X6.23Y-8.055
X6.238Y-5.0415
X6.241Y-6.73
X6.248Y-4.309
X6.249Y-7.209
X6.252Y-7.237
X6.2535Y-4.372
X6.2575Y-4.251
X6.2586Y-7.011
X6.2595Y-5.095
X6.26Y-6.58
X6.262Y-8.023
X6.272Y-6.992
X6.273Y-4.817
X6.2742Y-7.2348
X6.276Y-5.597
X6.277Y-4.7745
X6.28Y-4.4345
X6.282Y-4.6045
X6.282Y-4.91
X6.285Y-4.2345
X6.285Y-5.041
X6.286Y-6.416
X6.286Y-8.017
X6.2924Y-7.2538
X6.2931Y-6.6434
X6.2995Y-5.095
X6.304Y-5.738
X6.304Y-5.796
X6.305Y-6.434
X6.3055Y-4.4985
X6.306Y-4.667
X6.306Y-4.907
X6.3065Y-4.838
X6.307Y-6.101
X6.307Y-6.17
X6.307Y-8.079
X6.308Y-6.122
X6.312Y-7.325
X6.3125Y-4.3655
X6.313Y-7.352
X6.314Y-4.338
X6.325Y-4.922
X6.327Y-4.05
X6.3335Y-4.5415
X6.3335Y-4.7115
X6.334Y-4.884
X6.339Y-4.138
X6.34Y-5.12
X6.3415Y-4.7335
X6.3425Y-4.3965
X6.3578Y-4.139
X6.3585Y-4.5615
X6.362Y-6.869
X6.366Y-4.712
X6.366Y-4.884
X6.3665Y-4.7335
X6.369Y-4.3935
X6.383Y-4.545
X6.3906Y-6.169
X6.391Y-3.13
X6.391Y-3.169
X6.391Y-3.33
X6.391Y-3.92
X6.392Y-3.21
X6.392Y-3.25
X6.392Y-3.29
X6.393Y-4.499
X6.394Y-4.667
X6.394Y-4.837
X6.3965Y-7.0325
X6.397Y-7.07
X6.399Y-7.106
X6.401Y-7.146
X6.403Y-4.336
X6.404Y-4.3635
X6.405Y-7.257
X6.407Y-7.999
X6.41Y-4.164
X6.41Y-6.047
X6.415Y-4.805
X6.417Y-4.774
X6.42Y-4.6045
X6.421Y-4.4245
X6.421Y-4.45
X6.422Y-4.234
X6.424Y-7.362
X6.429Y-4.79
X6.43Y-4.47
X6.4448Y-6.316
X6.449Y-4.495
X6.45Y-7.547
X6.4583Y-6.9688
X6.464Y-5.739
X6.464Y-6.692
X6.4726Y-5.868
X6.4743Y-6.0328
X6.4748Y-6.1162
X6.475Y-7.328
X6.487Y-5.318
X6.493Y-6.04
X6.4995Y-3.2415
X6.501Y-6.535
X6.503Y-3.15
X6.503Y-7.328
X6.51Y-3.189
X6.5115Y-3.2805
X6.513Y-6.45
X6.519Y-5.596
X6.5195Y-3.211
X6.5211Y-5.815
X6.522Y-7.371
X6.523Y-7.423
X6.529Y-6.233
X6.5339Y-3.2495
X6.5391Y-6.2081
X6.547Y-4.2125
X6.557Y-6.022
X6.558Y-5.801
X6.561Y-5.726
X6.567Y-4.06
X6.5694Y-3.453
X6.572Y-5.591
X6.575Y-7.156
X6.5751Y-3.005
X6.585Y-3.346
X6.591Y-5.513
X6.595Y-7.22
X6.599Y-7.378
X6.605Y-3.451
X6.607Y-5.602
X6.609Y-4.271
X6.612Y-5.153
X6.6124Y-6.2442
X6.614Y-6.382
X6.615Y-3.0056
X6.617Y-6.225
X6.622Y-7.415
X6.624Y-6.797
X6.644Y-3.11
X6.644Y-6.306
X6.645Y-3.451
X6.645Y-6.777
X6.646Y-3.739
X6.646Y-7.247
X6.6551Y-3.0056
X6.658Y-4.9
X6.658Y-6.428
X6.661Y-6.062
X6.663Y-6.189
X6.665Y-3.1
X6.665Y-4.545
X6.666Y-5.332
X6.6666Y-5.7816
X6.667Y-6.758
X6.679Y-7.646
X6.68Y-7.331
X6.6836Y-3.108
X6.686Y-7.625
X6.6884Y-7.116
X6.6884Y-7.155
X6.695Y-3.006
X6.6994Y-3.445
X6.704Y-7.602
X6.706Y-7.313
X6.7109Y-6.3699
X6.711Y-3.103
X6.713Y-3.387
X6.7152Y-5.638
X6.7152Y-5.3608
X6.716Y-5.324
X6.717Y-6.427
X6.7192Y-6.3339
X6.7214Y-5.7987
X6.722Y-4.121
X6.726Y-6.018
X6.729Y-4.465
X6.73Y-4.009
X6.732Y-6.593
X6.7324Y-6.318
X6.735Y-3.006
X6.739Y-7.538
X6.742Y-3.562
X6.748Y-3.35
X6.748Y-6.28
X6.749Y-6.3736
X6.7494Y-6.1326
X6.751Y-6.216
X6.754Y-6.453
X6.755Y-3.451
X6.7559Y-3.7071
X6.76Y-7.696
X6.765Y-6.0015
X6.767Y-3.629
X6.767Y-3.7275
X6.768Y-3.649
X6.774Y-3.152
X6.776Y-6.315
X6.785Y-3.337
X6.795Y-3.45
X6.803Y-3.28
X6.8045Y-3.24
X6.821Y-6.35
X6.8227Y-6.09
X6.823Y-4.848
X6.8248Y-3.5703
X6.84Y-3.65
X6.84Y-3.679
X6.84Y-3.709
X6.843Y-5.631
X6.844Y-4.854
X6.8445Y-3.563
X6.85Y-6.457
X6.857Y-6.165
X6.863Y-6.214
X6.863Y-6.286
X6.874Y-3.651
X6.874Y-3.678
X6.874Y-3.708
X6.877Y-6.385
X6.877Y-7.828
X6.878Y-6.458
X6.884Y-3.797
X6.885Y-3.5415
X6.89Y-6.283
X6.891Y-6.214
X6.891Y-5.427
X6.893Y-3.515
X6.903Y-3.28
X6.904Y-3.569
X6.905Y-3.12
X6.905Y-3.16
X6.905Y-3.239
X6.905Y-3.32
X6.905Y-3.948
X6.905Y-4.171
X6.906Y-3.2
X6.906Y-3.816
X6.9075Y-3.651
X6.9075Y-3.679
X6.9075Y-3.71
X6.9095Y-7.824
X6.9142Y-3.5382
X6.916Y-7.765
X6.923Y-3.569
X6.927Y-8.0256
X6.93Y-3.8
X6.939Y-7.827
X6.94Y-5.957
X6.9404Y-6.4786
X6.944Y-7.751
X6.951Y-6.502
X6.9525Y-3.549
X6.955Y-6.049
X6.955Y-6.309
X6.955Y-6.33
X6.964Y-5.934
X6.9648Y-4.4156
X6.969Y-6.027
X6.982Y-3.7075
X6.983Y-5.983
X6.984Y-3.7285
X6.9906Y-7.597
X6.991Y-4.3682
X6.993Y-5.576
X6.995Y-6.631
X6.995Y-8.012
X6.9996Y-3.7155
X7.016Y-5.215
X7.021Y-6.013
X7.034Y-6.608
X7.0356Y-7.4014
X7.059Y-6.607
X7.0675Y-5.0365
X7.077Y-4.495
X7.085Y-6.006
X7.0855Y-7.622
X7.088Y-6.229
X7.097Y-4.478
X7.105Y-6.657
X7.112Y-5.874
X7.116Y-4.452
X7.12Y-6.614
X7.1255Y-5.124
X7.1265Y-3.663
X7.137Y-6.006
X7.139Y-5.049
X7.139Y-6.112
X7.155Y-3.7
X7.1565Y-5.2055
X7.1621Y-6.118
X7.1734Y-8.0236
X7.174Y-5.226
X7.176Y-7.312
X7.182Y-5.857
X7.184Y-6.122
X7.197Y-5.564
X7.205Y-6.1585
X7.208Y-5.912
X7.213Y-5.167
X7.214Y-5.095
X7.22Y-5.586
X7.229Y-5.623
X7.232Y-6.141
X7.2324Y-8.053
X7.235Y-4.415
X7.236Y-3.249
X7.241Y-3.296
X7.243Y-3.23
X7.256Y-4.416
X7.269Y-6.587
X7.278Y-7.521
X7.278Y-7.937
X7.321Y-6.873
X7.321Y-7.471
X7.322Y-7.072
X7.322Y-7.275
X7.323Y-6.375
X7.323Y-7.726
X7.324Y-6.026
X7.324Y-6.076
X7.324Y-6.225
X7.324Y-6.525
X7.324Y-7.125
X7.324Y-7.523
X7.3248Y-3.3681
X7.3248Y-3.4193
X7.3248Y-3.5177
X7.3248Y-3.5689
X7.3248Y-3.6693
X7.3248Y-3.7185
X7.325Y-6.824
X7.325Y-6.974
X7.325Y-7.5656
X7.3255Y-3.2175
X7.3255Y-3.2675
X7.3255Y-3.3175
X7.3255Y-3.4675
X7.3255Y-3.6175
X7.3255Y-3.7675
X7.3255Y-3.8175
X7.3255Y-3.8675
X7.3255Y-3.9175
X7.3255Y-3.9675
X7.3255Y-4.0175
X7.3255Y-4.0675
X7.3255Y-4.1175
X7.3255Y-4.1675
X7.3255Y-4.2175
X7.3255Y-4.2675
X7.3255Y-4.3175
X7.3255Y-4.3675
X7.3255Y-4.4175
X7.3255Y-4.4675
X7.3255Y-4.5175
X7.3255Y-4.5675
X7.3255Y-4.6175
X7.3255Y-4.6675
X7.3255Y-4.7175
X7.3255Y-4.7675
X7.3255Y-4.8175
X7.3255Y-4.9675
X7.3255Y-5.0175
X7.3255Y-5.0675
X7.3255Y-5.1175
X7.3255Y-5.1675
X7.326Y-6.674
X7.327Y-6.925
X7.329Y-4.866
X7.329Y-7.37
X7.329Y-7.877
X7.368Y-7.872
X7.373Y-6.325
X7.374Y-5.975
X7.374Y-6.626
X7.374Y-7.075
X7.374Y-3.7677
X7.374Y-3.8189
X7.375Y-6.125
X7.375Y-6.175
X7.375Y-6.474
X7.375Y-6.774
X7.375Y-7.375
X7.3755Y-3.2175
X7.3755Y-3.3675
X7.3755Y-3.4175
X7.3755Y-3.5675
X7.3755Y-3.7175
X7.3755Y-3.8675
X7.3755Y-3.9175
X7.3755Y-3.9675
X7.3755Y-4.0175
X7.3755Y-4.0675
X7.3755Y-4.1175
X7.3755Y-4.1675
X7.3755Y-4.2175
X7.3755Y-4.2675
X7.3755Y-4.3175
X7.3755Y-4.3675
X7.3755Y-4.4175
X7.3755Y-4.4675
X7.3755Y-4.5175
X7.3755Y-4.5675
X7.3755Y-4.6175
X7.3755Y-4.6675
X7.3755Y-4.7175
X7.3755Y-4.7675
X7.3755Y-4.8175
X7.3755Y-4.8675
X7.3755Y-4.9175
X7.3755Y-4.9675
X7.3755Y-5.0175
X7.3755Y-5.0675
X7.3755Y-5.1175
X7.3755Y-5.1675
X7.376Y-3.2677
X7.376Y-3.3189
X7.376Y-3.4685
X7.376Y-3.5177
X7.376Y-3.6181
X7.376Y-3.6693
X7.377Y-7.223
X7.377Y-7.6716
X7.391Y-5.288
X7.4232Y-6.124
X7.4232Y-6.1752
X7.4232Y-6.2756
X7.4232Y-6.3248
X7.4232Y-6.4252
X7.4232Y-6.4744
X7.4232Y-7.4783
X7.4232Y-7.5236
X7.4232Y-7.625
X7.424Y-6.025
X7.425Y-3.3685
X7.425Y-3.4177
X7.425Y-3.32
X7.425Y-3.47
X7.425Y-3.62
X7.425Y-3.77
X7.425Y-3.92
X7.425Y-4.07
X7.425Y-4.22
X7.425Y-4.37
X7.425Y-4.52
X7.425Y-4.82
X7.425Y-4.97
X7.425Y-5.12
X7.425Y-5.17
X7.425Y-6.075
X7.425Y-6.225
X7.425Y-6.375
X7.425Y-6.525
X7.425Y-6.675
X7.425Y-6.825
X7.425Y-6.975
X7.425Y-7.125
X7.425Y-7.275
X7.425Y-7.425
X7.425Y-7.575
X7.425Y-7.725
X7.425Y-7.875
X7.425Y-7.925
X7.4252Y-3.5669
X7.4252Y-3.6693
X7.4252Y-3.7185
X7.4252Y-3.8189
X7.4252Y-6.5748
X7.4252Y-6.624
X7.4252Y-6.7244
X7.4252Y-6.7736
X7.4252Y-6.874
X7.4252Y-6.9232
X7.4252Y-7.0236
X7.4252Y-7.0748
X7.4252Y-7.1752
X7.4252Y-7.2244
X7.4252Y-7.3228
X7.4252Y-7.374
X7.4252Y-7.6752
X7.4252Y-7.7756
X7.4252Y-7.8248
X7.4255Y-3.5175
X7.4255Y-3.8675
X7.4255Y-3.9675
X7.4255Y-4.0175
X7.4255Y-4.1175
X7.4255Y-4.1675
X7.4255Y-4.2675
X7.4255Y-4.3175
X7.4255Y-4.4175
X7.4255Y-4.4675
X7.4255Y-4.5675
X7.4255Y-4.6175
X7.4255Y-4.6675
X7.4255Y-4.7175
X7.4255Y-4.7675
X7.4255Y-4.8675
X7.4255Y-4.9175
X7.4255Y-5.0175
X7.4255Y-5.0675
X7.426Y-3.267
X7.465Y-5.287
X7.47Y-5.17
X7.47Y-7.88
X7.47Y-7.93
X7.47Y-6.775
X7.4724Y-7.625
X7.473Y-7.5754
X7.4744Y-6.2244
X7.4744Y-6.2756
X7.4744Y-6.374
X7.4744Y-6.4252
X7.4744Y-6.5236
X7.4744Y-6.5748
X7.4744Y-6.6752
X7.4744Y-6.7264
X7.4744Y-6.8248
X7.4744Y-6.874
X7.4744Y-6.9744
X7.4744Y-7.0236
X7.4744Y-7.124
X7.4744Y-7.1732
X7.4744Y-7.2756
X7.4744Y-7.3228
X7.4744Y-7.7244
X7.4744Y-7.7756
X7.475Y-3.22
X7.475Y-3.37
X7.475Y-3.42
X7.475Y-3.57
X7.475Y-3.72
X7.475Y-3.87
X7.475Y-4.02
X7.475Y-4.17
X7.475Y-4.47
X7.475Y-4.62
X7.475Y-4.77
X7.475Y-4.92
X7.475Y-5.07
X7.475Y-5.975
X7.475Y-6.125
X7.475Y-6.175
X7.475Y-6.325
X7.475Y-6.475
X7.475Y-6.625
X7.475Y-6.925
X7.475Y-7.075
X7.475Y-7.225
X7.475Y-7.375
X7.475Y-7.525
X7.475Y-7.675
X7.475Y-7.825
X7.4755Y-3.2675
X7.4755Y-3.3175
X7.4755Y-3.4675
X7.4755Y-3.5175
X7.4755Y-3.6175
X7.4755Y-3.6675
X7.4755Y-3.7675
X7.4755Y-3.8175
X7.4755Y-3.9175
X7.4755Y-3.9675
X7.4755Y-4.0675
X7.4755Y-4.1175
X7.4755Y-4.2175
X7.4755Y-4.2675
X7.4755Y-4.3175
X7.4755Y-4.3675
X7.4755Y-4.4175
X7.4755Y-4.5175
X7.4755Y-4.5675
X7.4755Y-4.6675
X7.4755Y-4.7175
X7.4755Y-4.8175
X7.4755Y-4.8675
X7.4755Y-4.9675
X7.4755Y-5.0175
X7.4755Y-5.1175
X7.4764Y-6.0236
X7.4764Y-6.0728
X7.4764Y-7.4252
X7.4764Y-7.4764
X7.513Y-7.472
X7.521Y-7.727
X7.522Y-7.4276
X7.522Y-7.927
X7.523Y-6.375
X7.523Y-6.976
X7.523Y-7.124
X7.523Y-7.276
X7.524Y-6.025
X7.524Y-6.075
X7.524Y-6.225
X7.524Y-6.525
X7.524Y-6.676
X7.524Y-6.825
X7.525Y-7.875
X7.5255Y-3.2175
X7.5255Y-3.2675
X7.5255Y-3.3175
X7.5255Y-3.3675
X7.5255Y-3.4175
X7.5255Y-3.4675
X7.5255Y-3.5175
X7.5255Y-3.5675
X7.5255Y-3.6175
X7.5255Y-3.6675
X7.5255Y-3.7175
X7.5255Y-3.7675
X7.5255Y-3.8175
X7.5255Y-3.8675
X7.5255Y-3.9175
X7.5255Y-3.9675
X7.5255Y-4.0175
X7.5255Y-4.0675
X7.5255Y-4.1175
X7.5255Y-4.1675
X7.5255Y-4.2175
X7.5255Y-4.2675
X7.5255Y-4.3175
X7.5255Y-4.3675
X7.5255Y-4.4175
X7.5255Y-4.4675
X7.5255Y-4.5175
X7.5255Y-4.5675
X7.5255Y-4.6175
X7.5255Y-4.6675
X7.5255Y-4.7175
X7.5255Y-4.7675
X7.5255Y-4.8175
X7.5255Y-4.8675
X7.5255Y-4.9175
X7.5255Y-4.9675
X7.5255Y-5.0175
X7.5255Y-5.0675
X7.5255Y-5.1175
X7.5255Y-5.1675
X7.534Y-7.4704
X7.561Y-7.673
X7.563Y-7.875
X7.5678Y-7.8222
X7.569Y-6.0164
X7.569Y-7.079
X7.571Y-6.628
X7.572Y-6.177
X7.572Y-7.376
X7.573Y-6.126
X7.573Y-6.476
X7.573Y-6.776
X7.573Y-6.928
X7.573Y-7.926
X7.574Y-7.722
X7.575Y-6.325
X7.575Y-7.224
X7.575Y-7.473
X7.5755Y-3.2175
X7.5755Y-3.2675
X7.5755Y-3.3175
X7.5755Y-3.3675
X7.5755Y-3.4175
X7.5755Y-3.4675
X7.5755Y-3.5175
X7.5755Y-3.5675
X7.5755Y-3.6175
X7.5755Y-3.6675
X7.5755Y-3.7175
X7.5755Y-3.7675
X7.5755Y-3.8175
X7.5755Y-3.8675
X7.5755Y-3.9175
X7.5755Y-3.9675
X7.5755Y-4.0175
X7.5755Y-4.0675
X7.5755Y-4.1175
X7.5755Y-4.1675
X7.5755Y-4.2175
X7.5755Y-4.2675
X7.5755Y-4.3175
X7.5755Y-4.3675
X7.5755Y-4.4175
X7.5755Y-4.4675
X7.5755Y-4.5175
X7.5755Y-4.5675
X7.5755Y-4.6175
X7.5755Y-4.6675
X7.5755Y-4.7175
X7.5755Y-4.7675
X7.5755Y-4.8175
X7.5755Y-4.8675
X7.5755Y-4.9175
X7.5755Y-4.9675
X7.5755Y-5.0175
X7.5755Y-5.0675
X7.5755Y-5.1175
X7.5755Y-5.1675
X7.577Y-7.772
X7.578Y-7.5756
X7.616Y-8.305
X7.619Y-7.83
X7.62Y-4.92
X7.62Y-5.841
X7.622Y-4.719
X7.622Y-7.578
X7.623Y-7.376
X7.6235Y-7.721
X7.624Y-7.425
X7.624Y-6.1752
X7.624Y-6.4744
X7.624Y-6.5256
X7.624Y-6.6752
X7.624Y-6.8248
X7.624Y-7.0748
X7.6245Y-4.818
X7.625Y-3.27
X7.625Y-3.32
X7.625Y-3.47
X7.625Y-3.52
X7.625Y-3.67
X7.625Y-3.82
X7.625Y-3.97
X7.625Y-4.12
X7.625Y-4.27
X7.625Y-4.57
X7.625Y-4.97
X7.625Y-5.02
X7.625Y-5.12
X7.625Y-5.17
X7.625Y-6.025
X7.625Y-6.075
X7.625Y-6.225
X7.625Y-6.275
X7.625Y-6.425
X7.625Y-6.575
X7.625Y-6.725
X7.625Y-6.875
X7.625Y-7.025
X7.625Y-7.175
X7.625Y-7.325
X7.625Y-7.775
X7.625Y-7.875
X7.625Y-7.925
X7.6255Y-3.3675
X7.6255Y-3.4175
X7.6255Y-3.5675
X7.6255Y-3.6175
X7.6255Y-3.7175
X7.6255Y-3.7675
X7.6255Y-3.8675
X7.6255Y-3.9175
X7.6255Y-4.0175
X7.6255Y-4.0675
X7.6255Y-4.1675
X7.6255Y-4.2175
X7.6255Y-4.3175
X7.6255Y-4.3675
X7.6255Y-4.4175
X7.6255Y-4.4675
X7.6255Y-4.5175
X7.6255Y-4.6175
X7.6255Y-4.6675
X7.6255Y-4.8675
X7.6255Y-5.0675
X7.626Y-6.124
X7.626Y-6.3248
X7.626Y-6.374
X7.626Y-6.624
X7.626Y-6.7736
X7.626Y-6.9232
X7.626Y-6.9744
X7.626Y-7.124
X7.626Y-7.2224
X7.626Y-7.2736
X7.627Y-7.625
X7.632Y-5.646
X7.667Y-5.467
X7.669Y-7.83
X7.671Y-5.978
X7.6732Y-3.4685
X7.6732Y-3.5197
X7.6732Y-6.8268
X7.674Y-4.6705
X7.675Y-3.22
X7.675Y-3.37
X7.675Y-3.42
X7.675Y-3.57
X7.675Y-3.62
X7.675Y-3.77
X7.675Y-3.82
X7.675Y-3.97
X7.675Y-4.02
X7.675Y-4.17
X7.675Y-4.22
X7.675Y-4.37
X7.675Y-4.57
X7.675Y-4.62
X7.675Y-4.716
X7.675Y-4.77
X7.675Y-4.82
X7.675Y-4.87
X7.675Y-4.97
X7.675Y-5.07
X7.675Y-5.12
X7.675Y-5.17
X7.675Y-6.024
X7.675Y-6.074
X7.675Y-6.125
X7.675Y-6.175
X7.675Y-6.325
X7.675Y-6.375
X7.675Y-6.525
X7.675Y-6.575
X7.675Y-6.725
X7.675Y-6.775
X7.675Y-6.925
X7.675Y-6.975
X7.675Y-7.125
X7.675Y-7.175
X7.675Y-7.325
X7.675Y-7.375
X7.675Y-7.525
X7.675Y-7.575
X7.675Y-7.725
X7.675Y-7.875
X7.675Y-7.925
X7.6752Y-6.2244
X7.6752Y-6.2756
X7.6752Y-6.4252
X7.6752Y-6.4744
X7.6752Y-6.624
X7.6752Y-6.6752
X7.6752Y-6.874
X7.6752Y-7.0236
X7.6752Y-7.0748
X7.6752Y-7.2244
X7.6752Y-7.2736
X7.6755Y-3.8675
X7.6755Y-3.9175
X7.6755Y-4.0675
X7.6755Y-4.1175
X7.6755Y-4.2675
X7.6755Y-4.3175
X7.6755Y-4.4175
X7.6755Y-4.4675
X7.6755Y-4.5175
X7.6765Y-3.6685
X7.6765Y-3.7185
X7.677Y-7.473
X7.6772Y-3.2677
X7.6772Y-3.3189
X7.678Y-7.422
X7.714Y-5.796
X7.716Y-8.305
X7.723Y-6.426
X7.723Y-6.625
X7.723Y-6.675
X7.723Y-7.481
X7.723Y-7.509
X7.724Y-6.275
X7.724Y-6.826
X7.724Y-6.876
X7.724Y-7.226
X7.724Y-7.276
X7.724Y-7.425
X7.724Y-7.624
X7.7245Y-6.9232
X7.7245Y-6.9744
X7.725Y-6.025
X7.725Y-6.075
X7.725Y-6.474
X7.725Y-7.025
X7.725Y-7.075
X7.725Y-7.823
X7.7255Y-3.2175
X7.7255Y-3.2675
X7.7255Y-3.3175
X7.7255Y-3.3675
X7.7255Y-3.4175
X7.7255Y-3.4675
X7.7255Y-3.5175
X7.7255Y-3.5675
X7.7255Y-3.6175
X7.7255Y-3.6675
X7.7255Y-3.7175
X7.7255Y-3.7675
X7.7255Y-3.8175
X7.7255Y-3.8675
X7.7255Y-3.9175
X7.7255Y-3.9675
X7.7255Y-4.0175
X7.7255Y-4.0675
X7.7255Y-4.1175
X7.7255Y-4.1675
X7.7255Y-4.2175
X7.7255Y-4.2675
X7.7255Y-4.3175
X7.7255Y-4.3675
X7.7255Y-4.4175
X7.7255Y-4.4675
X7.7255Y-4.5175
X7.7255Y-4.5675
X7.7255Y-4.6175
X7.7255Y-4.6675
X7.7255Y-4.7175
X7.7255Y-4.7675
X7.7255Y-4.8175
X7.7255Y-4.8675
X7.7255Y-4.9175
X7.7255Y-4.9675
X7.7255Y-5.0175
X7.7255Y-5.0675
X7.7255Y-5.1675
X7.726Y-5.118
X7.726Y-7.673
X7.726Y-7.924
X7.7272Y-6.2222
X7.728Y-7.577
X7.734Y-5.882
X7.734Y-5.907
X7.756Y-5.738
X7.771Y-5.978
X7.771Y-7.821
X7.773Y-6.575
X7.773Y-7.126
X7.773Y-7.176
X7.774Y-6.325
X7.774Y-6.375
X7.774Y-6.525
X7.774Y-7.325
X7.774Y-7.375
X7.774Y-7.924
X7.775Y-6.126
X7.775Y-6.176
X7.775Y-6.725
X7.775Y-6.775
X7.775Y-6.927
X7.775Y-6.977
X7.7755Y-3.2175
X7.7755Y-3.3675
X7.7755Y-3.4175
X7.7755Y-3.5675
X7.7755Y-3.6175
X7.7755Y-3.6675
X7.7755Y-3.7175
X7.7755Y-3.7675
X7.7755Y-3.8175
X7.7755Y-3.8675
X7.7755Y-3.9175
X7.7755Y-4.0175
X7.7755Y-4.0675
X7.7755Y-4.1175
X7.7755Y-4.1675
X7.7755Y-4.2175
X7.7755Y-4.3675
X7.7755Y-4.4175
X7.7755Y-4.5675
X7.7755Y-4.6175
X7.7755Y-4.6675
X7.7755Y-4.7175
X7.7755Y-4.7675
X7.7755Y-4.8175
X7.7755Y-4.9675
X7.7755Y-5.0175
X7.7755Y-5.0675
X7.7755Y-5.1175
X7.7755Y-5.1675
X7.7756Y-3.9665
X7.8045Y-3.3452
X7.8045Y-3.3668
X7.8206Y-7.4688
X7.828Y-5.9228
X7.829Y-7.868
X7.8348Y-5.7488
X7.837Y-7.573
X7.845Y-7.44
X7.858Y-7.6845
X7.8615Y-8.084
X7.863Y-5.598
X7.866Y-5.656
X7.878Y-5.421
X7.878Y-5.581
X7.878Y-7.8545
X7.8835Y-8.275
X7.8895Y-8.051
X7.891Y-7.455
X7.893Y-7.4
X7.903Y-7.4694
X7.9135Y-8.111
X7.951Y-4.6345
X7.952Y-7.506
X7.9625Y-8.0195
X7.967Y-7.8505
X7.9678Y-4.6528
X7.979Y-4.696
X7.9832Y-4.6682
X7.996Y-7.068
X8.0035Y-8.028
X8.024Y-7.3188
X8.027Y-7.3858
X8.029Y-7.038
X8.0362Y-8.1182
X8.044Y-8.047
X8.046Y-4.5425
X8.0463Y-4.5187
X8.048Y-6.8176
X8.0494Y-6.9218
X8.0532Y-6.1898
X8.0546Y-6.1214
X8.056Y-8.0085
X8.0617Y-4.5033
X8.0644Y-7.7664
X8.0666Y-7.7214
X8.0743Y-7.6651
X8.0746Y-6.1896
X8.0748Y-7.5631
X8.0762Y-7.6024
X8.0767Y-7.5818
X8.0771Y-7.623
X8.078Y-4.49
X8.0815Y-7.783
X8.088Y-6.9072
X8.088Y-8.1485
X8.0933Y-6.1943
X8.0978Y-6.8918
X8.104Y-7.839
X8.1268Y-6.3666
X8.1275Y-8.0585
X8.151Y-8.01
X8.169Y-4.512
X8.1709Y-7.535
X8.1735Y-4.1855
X8.175Y-5.6055
X8.177Y-7.4645
X8.1774Y-4.1622
X8.18Y-8.0965
X8.181Y-4.711
X8.186Y-3.983
X8.187Y-4.506
X8.187Y-8.1335
X8.1874Y-5.6183
X8.1905Y-8.0535
X8.192Y-4.568
X8.192Y-4.597
X8.192Y-4.637
X8.194Y-6.778
X8.196Y-7.87
X8.1964Y-4.737
X8.1999Y-5.6326
X8.211Y-3.985
X8.2122Y-5.6454
X8.22Y-7.285
X8.2215Y-4.194
X8.225Y-7.8045
X8.2252Y-5.6588
X8.2286Y-7.3326
X8.2335Y-3.9765
X8.2373Y-5.6728
X8.245Y-4.1895
X8.2465Y-7.836
X8.2515Y-5.6864
X8.2566Y-3.8691
X8.27Y-4.6
X8.279Y-4.618
X8.286Y-7.879
X8.291Y-4.18
X8.292Y-4.199
X8.3101Y-8.0731
X8.3123Y-5.6477
X8.3135Y-8.0522
X8.3149Y-8.0283
X8.3246Y-7.8368
X8.328Y-3.8695
X8.335Y-4.169
X8.3395Y-4.196
X8.343Y-4.701
X8.351Y-4.0115
X8.352Y-5.917
X8.355Y-4.171
X8.3578Y-4.1928
X8.3623Y-4.7037
X8.3624Y-7.1304
X8.363Y-4.0672
X8.363Y-4.0888
X8.363Y-5.982
X8.368Y-5.929
X8.3704Y-4.0013
X8.3777Y-4.6883
X8.383Y-4.6685
X8.3869Y-7.1059
X8.3875Y-5.9885
X8.399Y-3.8695
X8.4159Y-4.1396
X8.4202Y-6.2882
X8.437Y-8.025
X8.438Y-7.057
X8.439Y-4.0355
X8.4494Y-6.2908
X8.45Y-4.018
X8.4591Y-4.1755
X8.4598Y-6.1314
X8.47Y-3.8695
X8.47Y-4.126
X8.479Y-7.8235
X8.482Y-4.1888
X8.4925Y-5.102
X8.493Y-4.0015
X8.4946Y-5.2164
X8.4946Y-5.4528
X8.4946Y-5.3738
X8.4946Y-5.137
X8.4946Y-5.177
X8.4946Y-5.256
X8.4946Y-5.413
X8.4949Y-5.2953
X8.4949Y-5.4921
X8.4949Y-5.7283
X8.4949Y-6.122
X8.495Y-5.9251
X8.4951Y-5.8466
X8.4951Y-5.6099
X8.4951Y-5.689
X8.4951Y-5.807
X8.4951Y-5.9644
X8.4951Y-6.004
X8.4951Y-6.0433
X8.4956Y-5.8857
X8.4961Y-5.7676
X8.4961Y-5.649
X8.497Y-5.5706
X8.497Y-7.901
X8.499Y-6.8155
X8.5037Y-4.1888
X8.5087Y-6.7992
X8.518Y-7.8585
X8.52Y-3.8715
X8.525Y-8.121
X8.526Y-8.0305
X8.5302Y-6.2138
X8.534Y-5.3738
X8.5341Y-5.7282
X8.5341Y-5.689
X8.5342Y-5.6494
X8.5343Y-5.0976
X8.5343Y-5.2165
X8.5343Y-5.2559
X8.5343Y-5.2953
X8.5343Y-5.413
X8.5343Y-5.4528
X8.5343Y-5.4921
X8.5343Y-5.5315
X8.5343Y-5.5709
X8.5343Y-5.8071
X8.5343Y-5.9646
X8.5343Y-6.0039
X8.5343Y-6.0433
X8.5349Y-5.8464
X8.5349Y-5.9252
X8.535Y-5.8857
X8.5351Y-5.7676
X8.536Y-4.508
X8.54Y-3.87
X8.548Y-4.1555
X8.5515Y-4.187
X8.552Y-8.0945
X8.5535Y-7.8235
X8.5615Y-8.054
X8.564Y-3.9986
X8.57Y-8.1275
X8.5718Y-5.7282
X8.5734Y-5.8858
X8.5735Y-5.6101
X8.5735Y-5.6488
X8.5736Y-5.689
X8.5736Y-5.0976
X8.5736Y-5.1378
X8.5736Y-5.1772
X8.5736Y-5.2165
X8.5736Y-5.2559
X8.5736Y-5.2953
X8.5736Y-5.3346
X8.5736Y-5.3738
X8.5736Y-5.413
X8.5736Y-5.4528
X8.5736Y-5.4921
X8.5736Y-5.5315
X8.5736Y-5.7677
X8.5736Y-5.8071
X8.5736Y-5.8465
X8.5736Y-5.9252
X8.5736Y-5.9646
X8.5736Y-6.0039
X8.5737Y-6.0433
X8.5751Y-4.1699
X8.5865Y-3.9995
X8.6015Y-3.8225
X8.611Y-3.87
X8.613Y-5.3738
X8.613Y-5.0984
X8.613Y-5.1378
X8.613Y-5.1772
X8.613Y-5.2165
X8.613Y-5.2559
X8.613Y-5.2953
X8.613Y-5.3346
X8.613Y-5.413
X8.613Y-5.4528
X8.613Y-5.4921
X8.613Y-5.5315
X8.613Y-5.5709
X8.613Y-5.6102
X8.613Y-5.689
X8.613Y-5.7677
X8.613Y-5.8071
X8.613Y-5.8465
X8.613Y-5.8858
X8.613Y-5.9252
X8.613Y-5.9646
X8.613Y-6.0039
X8.613Y-6.0433
X8.613Y-6.0824
X8.613Y-5.7285
X8.614Y-8.01
X8.622Y-7.576
X8.622Y-7.517
X8.6235Y-4.1655
X8.6245Y-4.1888
X8.635Y-4.0165
X8.643Y-7.852
X8.6445Y-7.8265
X8.6522Y-5.7283
X8.6522Y-5.7677
X8.6523Y-5.9252
X8.6524Y-5.0984
X8.6524Y-5.1378
X8.6524Y-5.1772
X8.6524Y-5.2165
X8.6524Y-5.2559
X8.6524Y-5.2953
X8.6524Y-5.3346
X8.6524Y-5.3738
X8.6524Y-5.4134
X8.6524Y-5.4528
X8.6524Y-5.4921
X8.6524Y-5.5315
X8.6524Y-5.5709
X8.6524Y-5.6494
X8.6524Y-5.8071
X8.6524Y-5.8465
X8.6524Y-5.8858
X8.6524Y-5.9646
X8.6524Y-6.0039
X8.6524Y-6.0433
X8.6525Y-5.6886
X8.6568Y-7.41
X8.658Y-7.868
X8.662Y-8.003
X8.669Y-4.163
X8.67Y-8.022
X8.6705Y-4.185
X8.6815Y-3.87
X8.683Y-4.069
X8.687Y-8.1175
X8.6909Y-7.7312
X8.6916Y-5.0984
X8.6916Y-5.1378
X8.6916Y-5.1772
X8.6916Y-5.2953
X8.6916Y-5.3346
X8.6916Y-5.374
X8.6916Y-5.4134
X8.6916Y-5.4921
X8.6916Y-5.5315
X8.6916Y-5.5709
X8.6916Y-5.256
X8.6917Y-5.8071
X8.6917Y-5.8465
X8.6917Y-5.8858
X8.6917Y-5.9646
X8.6917Y-6.0039
X8.6917Y-6.0433
X8.6917Y-6.0824
X8.6917Y-6.122
X8.6917Y-5.9253
X8.6917Y-5.6494
X8.6918Y-5.7667
X8.6918Y-5.7284
X8.6919Y-5.6886
X8.6946Y-4.188
X8.7045Y-4.0015
X8.7163Y-4.188
X8.7175Y-8.01
X8.721Y-7.522
X8.722Y-4.166
X8.729Y-3.871
X8.7308Y-5.4528
X8.7308Y-5.4921
X8.7308Y-5.5315
X8.7309Y-5.3734
X8.731Y-5.2635
X8.731Y-5.5707
X8.731Y-5.2953
X8.731Y-5.4134
X8.7311Y-5.0984
X8.7311Y-5.1378
X8.7311Y-5.1772
X8.7311Y-5.2165
X8.7311Y-5.6494
X8.7311Y-5.689
X8.7311Y-5.7283
X8.7311Y-5.7677
X8.7311Y-5.8071
X8.7311Y-5.8465
X8.7311Y-5.8858
X8.7312Y-5.9252
X8.7312Y-5.9646
X8.7312Y-6.0039
X8.7312Y-6.0433
X8.7312Y-6.0823
X8.7312Y-6.1217
X8.7466Y-7.6252
X8.7469Y-7.4148
X8.7502Y-4.0448
X8.755Y-2.891
X8.768Y-3.332
X8.768Y-6.771
X8.7686Y-4.1842
X8.77Y-7.3135
X8.77Y-5.5697
X8.7705Y-5.0984
X8.7705Y-5.1378
X8.7705Y-5.1772
X8.7705Y-5.2165
X8.7705Y-5.2559
X8.7705Y-5.2953
X8.7705Y-5.3346
X8.7705Y-5.374
X8.7705Y-5.4134
X8.7705Y-5.4528
X8.7705Y-5.4921
X8.7705Y-5.6496
X8.7705Y-5.689
X8.7705Y-5.7283
X8.7705Y-5.7677
X8.7705Y-5.8071
X8.7705Y-5.8465
X8.7705Y-5.8858
X8.7705Y-5.9252
X8.7705Y-5.9646
X8.7705Y-6.0039
X8.7705Y-6.0433
X8.7742Y-5.529
X8.7785Y-4.4825
X8.78Y-3.229
X8.78Y-4.075
X8.7802Y-2.9018
X8.7863Y-4.5093
X8.7865Y-7.5704
X8.787Y-3.7115
X8.7873Y-4.1637
X8.7918Y-7.5884
X8.8Y-3.871
X8.8017Y-4.5247
X8.8055Y-3.229
X8.8058Y-2.8958
X8.807Y-3.562
X8.808Y-5.767
X8.8094Y-5.7282
X8.8097Y-5.8469
X8.8098Y-5.9646
X8.8098Y-6.0039
X8.8098Y-6.0432
X8.8098Y-5.9252
X8.8098Y-5.8071
X8.8098Y-5.8858
X8.8098Y-6.0827
X8.8098Y-5.0984
X8.8098Y-5.1378
X8.8098Y-5.1772
X8.8098Y-5.2165
X8.8098Y-5.2559
X8.8098Y-5.2953
X8.8098Y-5.3346
X8.8098Y-5.374
X8.8098Y-5.4134
X8.8098Y-5.4528
X8.8098Y-5.4921
X8.8098Y-5.5315
X8.8098Y-5.5709
X8.8098Y-5.6496
X8.8098Y-5.689
X8.8115Y-4.186
X8.819Y-4.5475
X8.823Y-4.0085
X8.832Y-3.229
X8.8435Y-4.1855
X8.8485Y-3.9985
X8.849Y-5.8074
X8.8492Y-5.0984
X8.8492Y-5.1378
X8.8492Y-5.1772
X8.8492Y-5.2165
X8.8492Y-5.2559
X8.8492Y-5.2953
X8.8492Y-5.3346
X8.8492Y-5.374
X8.8492Y-5.4134
X8.8492Y-5.4528
X8.8492Y-5.4921
X8.8492Y-5.5315
X8.8492Y-5.5709
X8.8492Y-5.7283
X8.8492Y-5.7677
X8.8492Y-5.8465
X8.8492Y-5.8858
X8.8492Y-5.9252
X8.8492Y-5.9646
X8.8492Y-6.0039
X8.8492Y-6.0433
X8.8496Y-5.6884
X8.857Y-3.229
X8.859Y-4.3074
X8.862Y-3.67
X8.8705Y-3.871
X8.872Y-4.4915
X8.8775Y-4.0185
X8.8813Y-4.5213
X8.8825Y-3.229
X8.8882Y-5.6898
X8.8886Y-5.0984
X8.8886Y-5.1378
X8.8886Y-5.1772
X8.8886Y-5.2559
X8.8886Y-5.2953
X8.8886Y-5.3346
X8.8886Y-5.3739
X8.8886Y-5.4135
X8.8886Y-5.4921
X8.8886Y-5.5315
X8.8886Y-5.5709
X8.8886Y-5.6102
X8.8886Y-5.7283
X8.8886Y-5.7677
X8.8886Y-5.8465
X8.8886Y-5.8858
X8.8886Y-5.9252
X8.8886Y-5.9646
X8.8886Y-6.0039
X8.8886Y-6.0433
X8.8887Y-5.8071
X8.889Y-5.6495
X8.8925Y-4.0335
X8.893Y-3.4855
X8.894Y-3.46
X8.8945Y-3.367
X8.8967Y-4.5367
X8.8981Y-4.1815
X8.9065Y-4.306
X8.907Y-3.4345
X8.908Y-3.229
X8.908Y-3.3435
X8.911Y-4.5575
X8.92Y-3.4175
X8.9279Y-6.152
X8.9279Y-6.0825
X8.9279Y-6.1224
X8.928Y-5.0984
X8.928Y-5.1378
X8.928Y-5.1772
X8.928Y-5.2165
X8.928Y-5.2559
X8.928Y-5.2953
X8.928Y-5.3346
X8.928Y-5.374
X8.928Y-5.4134
X8.928Y-5.4528
X8.928Y-5.4921
X8.928Y-5.5315
X8.928Y-5.5709
X8.928Y-5.6496
X8.928Y-5.689
X8.928Y-5.7283
X8.928Y-5.7677
X8.928Y-5.8071
X8.928Y-5.8465
X8.928Y-5.8858
X8.928Y-5.9252
X8.928Y-5.9646
X8.928Y-6.0039
X8.928Y-6.0433
X8.93Y-4.301
X8.934Y-3.229
X8.934Y-4.077
X8.942Y-3.8715
X8.951Y-7.222
X8.953Y-4.1875
X8.959Y-3.2465
X8.9665Y-4.0115
X8.9673Y-5.0984
X8.9673Y-5.1378
X8.9673Y-5.1772
X8.9673Y-5.2165
X8.9673Y-5.2559
X8.9673Y-5.2953
X8.9673Y-5.3346
X8.9673Y-5.374
X8.9673Y-5.4134
X8.9673Y-5.4528
X8.9673Y-5.4921
X8.9673Y-5.5315
X8.9673Y-5.5709
X8.9673Y-5.6496
X8.9673Y-5.689
X8.9673Y-5.7283
X8.9673Y-5.7677
X8.9673Y-5.8071
X8.9673Y-5.8465
X8.9673Y-5.8858
X8.9673Y-5.9252
X8.9673Y-5.9646
X8.9673Y-6.0039
X8.9673Y-6.0433
X8.9673Y-6.0827
X8.9673Y-6.122
X8.9685Y-4.102
X8.977Y-4.1855
X8.9865Y-2.882
X8.987Y-3.2485
X8.9895Y-3.993
X8.9945Y-5.5706
X9.0045Y-3.218
X9.006Y-5.7285
X9.0066Y-5.9642
X9.0066Y-6.122
X9.0067Y-5.7677
X9.0067Y-5.8071
X9.0067Y-5.8465
X9.0067Y-5.8858
X9.0067Y-5.9252
X9.0067Y-6.0039
X9.0067Y-6.0433
X9.0067Y-6.0827
X9.0071Y-5.6496
X9.0071Y-5.689
X9.008Y-7.414
X9.012Y-3.8715
X9.014Y-2.885
X9.025Y-4.1875
X9.0321Y-3.2729
X9.043Y-7.999
X9.0454Y-5.0984
X9.0455Y-5.8859
X9.0461Y-5.1772
X9.0461Y-5.2165
X9.0461Y-5.2559
X9.0461Y-5.2953
X9.0461Y-5.4921
X9.0461Y-5.5315
X9.0461Y-5.5709
X9.0466Y-5.1366
X9.0466Y-5.3726
X9.047Y-5.9256
X9.0474Y-5.9632
X9.0488Y-6.085
X9.0518Y-5.4514
X9.06Y-3.273
X9.0655Y-4.574
X9.067Y-4.397
X9.0685Y-7.2599
X9.072Y-4.233
X9.0791Y-6.444
X9.0806Y-5.449
X9.0839Y-6.0816
X9.0842Y-5.9614
X9.0848Y-6.043
X9.0854Y-5.0984
X9.0854Y-5.1772
X9.0854Y-5.2165
X9.0854Y-5.2559
X9.0854Y-5.2953
X9.0854Y-5.3346
X9.0854Y-5.374
X9.0854Y-5.4134
X9.0854Y-5.4921
X9.0854Y-5.5315
X9.0854Y-5.5709
X9.0854Y-5.6496
X9.0854Y-5.689
X9.0854Y-5.7283
X9.0854Y-5.7677
X9.0854Y-5.8071
X9.0854Y-5.8858
X9.0854Y-5.9252
X9.0854Y-6.0039
X9.0858Y-5.8464
X9.0866Y-5.1366
X9.092Y-6.998
X9.096Y-4.2685
X9.0985Y-4.389
X9.1041Y-6.282
X9.1135Y-4.574
X9.123Y-6.1168
X9.1236Y-5.3754
X9.1244Y-5.4134
X9.1245Y-3.4155
X9.1248Y-5.0984
X9.1248Y-5.1378
X9.1248Y-5.1772
X9.1248Y-5.2165
X9.1248Y-5.2559
X9.1248Y-5.2953
X9.1248Y-5.4528
X9.1248Y-5.4921
X9.1248Y-5.5315
X9.1248Y-5.5709
X9.1248Y-5.6496
X9.1248Y-5.689
X9.1248Y-5.7283
X9.1248Y-5.7677
X9.1248Y-5.8071
X9.1248Y-5.8465
X9.1248Y-5.8858
X9.1248Y-5.9252
X9.1248Y-5.9646
X9.1248Y-6.0039
X9.1248Y-6.0433
X9.1253Y-6.0813
X9.1255Y-5.3358
X9.1275Y-3.3675
X9.13Y-3.506
X9.133Y-4.574
X9.1355Y-3.6125
X9.1369Y-3.589
X9.1425Y-4.1915
X9.143Y-4.412
X9.1485Y-4.4825
X9.15Y-4.501
X9.1505Y-3.6275
X9.1529Y-3.651
X9.1535Y-3.8645
X9.1535Y-4.567
X9.1603Y-3.3175
X9.161Y-4.5199
X9.161Y-4.5415
X9.162Y-5.923
X9.163Y-5.3752
X9.1634Y-6.1213
X9.1634Y-6.0034
X9.1634Y-5.8073
X9.1635Y-5.3353
X9.1638Y-5.1378
X9.1638Y-5.1772
X9.1642Y-5.0984
X9.1642Y-5.2165
X9.1642Y-5.2559
X9.1642Y-5.2953
X9.1642Y-5.4134
X9.1642Y-5.4528
X9.1642Y-5.4921
X9.1642Y-5.5315
X9.1642Y-5.5709
X9.1642Y-5.6496
X9.1642Y-5.689
X9.1642Y-5.7283
X9.1642Y-5.7677
X9.1642Y-5.8465
X9.1642Y-5.8858
X9.1642Y-5.9646
X9.1642Y-6.0433
X9.1644Y-6.0817
X9.178Y-3.9935
X9.1895Y-4.306
X9.1921Y-6.248
X9.2012Y-3.3549
X9.2019Y-3.6252
X9.202Y-4.004
X9.202Y-5.3754
X9.2025Y-3.502
X9.203Y-5.4133
X9.2035Y-5.177
X9.2035Y-5.217
X9.2035Y-5.0984
X9.2035Y-5.1378
X9.2035Y-5.2559
X9.2035Y-5.2953
X9.2035Y-5.3346
X9.2035Y-5.4921
X9.2035Y-5.5315
X9.2035Y-5.5709
X9.2035Y-5.6496
X9.2035Y-5.689
X9.2035Y-5.7283
X9.2035Y-5.7677
X9.2035Y-5.8071
X9.2035Y-5.8465
X9.2036Y-5.8862
X9.2036Y-7.8482
X9.2036Y-5.9251
X9.2036Y-5.9646
X9.2036Y-6.0039
X9.2036Y-6.0433
X9.2036Y-6.0827
X9.2036Y-6.1221
X9.213Y-4.1915
X9.218Y-6.846
X9.2245Y-3.864
X9.235Y-6.599
X9.238Y-4.304
X9.2415Y-5.2953
X9.2422Y-5.334
X9.2428Y-6.0031
X9.2429Y-5.1772
X9.2429Y-5.2165
X9.2429Y-5.2559
X9.2429Y-5.374
X9.2429Y-5.4528
X9.2429Y-5.4921
X9.2429Y-5.5315
X9.2429Y-5.5709
X9.2429Y-5.689
X9.2429Y-5.7283
X9.2429Y-5.7677
X9.2429Y-5.8465
X9.2429Y-5.8858
X9.2429Y-5.9252
X9.2429Y-5.9646
X9.2429Y-6.0433
X9.2429Y-6.0827
X9.2429Y-6.122
X9.2431Y-5.65
X9.2434Y-5.4126
X9.2434Y-5.1385
X9.2438Y-5.807
X9.2439Y-5.098
X9.2472Y-3.2409
X9.249Y-4.004
X9.2569Y-3.6922
X9.2692Y-3.3119
X9.2705Y-4.3045
X9.2811Y-5.885
X9.2823Y-5.1025
X9.2823Y-5.138
X9.2823Y-5.1772
X9.2823Y-5.374
X9.2823Y-5.4528
X9.2823Y-5.5315
X9.2823Y-5.5709
X9.2823Y-5.6496
X9.2823Y-5.689
X9.2823Y-5.7283
X9.2823Y-5.7677
X9.2823Y-5.8071
X9.2823Y-5.8465
X9.2823Y-5.9252
X9.2823Y-5.9646
X9.2823Y-6.0039
X9.2823Y-6.0433
X9.2823Y-6.0827
X9.2823Y-6.122
X9.2824Y-5.2165
X9.2825Y-3.554
X9.2828Y-5.4126
X9.2829Y-5.2555
X9.283Y-5.334
X9.284Y-4.192
X9.286Y-4.006
X9.295Y-3.8645
X9.2969Y-6.9145
X9.298Y-7.633
X9.3025Y-4.3055
X9.309Y-7.616
X9.3134Y-7.8486
X9.3141Y-6.124
X9.319Y-6.617
X9.3195Y-3.999
X9.3204Y-6.0026
X9.3209Y-5.9251
X9.3217Y-5.0984
X9.3217Y-5.1378
X9.3217Y-5.1772
X9.3217Y-5.2165
X9.3217Y-5.2559
X9.3217Y-5.2953
X9.3217Y-5.3346
X9.3217Y-5.374
X9.3217Y-5.4134
X9.3217Y-5.4528
X9.3217Y-5.4921
X9.3217Y-5.5315
X9.3217Y-5.5709
X9.3217Y-5.6496
X9.3217Y-5.7283
X9.3217Y-5.7677
X9.3217Y-5.8071
X9.3217Y-5.8465
X9.3217Y-5.8858
X9.3217Y-5.9646
X9.3217Y-6.0433
X9.3217Y-6.0827
X9.3331Y-4.303
X9.3425Y-3.992
X9.3528Y-6.525
X9.3558Y-4.1925
X9.3595Y-5.1378
X9.3595Y-5.2165
X9.3598Y-6.0026
X9.36Y-5.0984
X9.3601Y-5.493
X9.3603Y-5.9251
X9.361Y-5.2559
X9.361Y-5.2953
X9.361Y-5.3346
X9.361Y-5.374
X9.361Y-5.4134
X9.361Y-5.4528
X9.361Y-5.5315
X9.361Y-5.5709
X9.361Y-5.7283
X9.361Y-5.7677
X9.361Y-5.8071
X9.361Y-5.8465
X9.361Y-5.8858
X9.361Y-5.9646
X9.361Y-6.0433
X9.361Y-6.0827
X9.3625Y-5.608
X9.3625Y-5.648
X9.363Y-4.7825
X9.364Y-7.106
X9.366Y-3.865
X9.367Y-7.154
X9.3671Y-6.128
X9.3679Y-3.509
X9.3775Y-4.303
X9.3792Y-3.0559
X9.3832Y-7.869
X9.3875Y-4.428
X9.391Y-3.994
X9.391Y-7.145
X9.4Y-5.0985
X9.4003Y-4.4077
X9.4004Y-5.2953
X9.4004Y-5.3346
X9.4004Y-5.374
X9.4004Y-5.4134
X9.4004Y-5.4921
X9.4004Y-5.5315
X9.4004Y-5.5709
X9.4004Y-5.6102
X9.4004Y-5.689
X9.4004Y-5.7283
X9.4004Y-5.7677
X9.4004Y-5.8071
X9.4004Y-5.8465
X9.4004Y-5.8858
X9.4004Y-5.9252
X9.4004Y-5.9646
X9.4004Y-6.0039
X9.4004Y-6.0433
X9.4004Y-6.0827
X9.401Y-5.1378
X9.4015Y-5.1771
X9.4015Y-5.2164
X9.403Y-4.311
X9.4034Y-5.2517
X9.414Y-3.555
X9.415Y-4.0075
X9.4152Y-3.0659
X9.4157Y-4.3923
X9.426Y-4.1915
X9.426Y-7.107
X9.427Y-7.364
X9.4282Y-3.5009
X9.431Y-7.021
X9.4358Y-5.5746
X9.437Y-3.8645
X9.437Y-5.8494
X9.4372Y-3.2149
X9.438Y-4.3845
X9.439Y-5.769
X9.439Y-6.006
X9.4398Y-5.0984
X9.4398Y-5.1772
X9.4398Y-5.2165
X9.4398Y-5.2559
X9.4398Y-5.2953
X9.4398Y-5.3346
X9.4398Y-5.374
X9.4398Y-5.4134
X9.4398Y-5.4528
X9.4398Y-5.4921
X9.4398Y-5.5315
X9.4398Y-5.6102
X9.4398Y-5.689
X9.4398Y-5.7283
X9.4398Y-5.8071
X9.4398Y-5.8858
X9.4398Y-5.9255
X9.4398Y-5.9646
X9.4398Y-6.0433
X9.44Y-5.138
X9.441Y-6.0864
X9.4428Y-4.3088
X9.4472Y-3.4149
X9.4532Y-3.0569
X9.4572Y-3.5599
X9.4582Y-4.3242
X9.4589Y-7.334
X9.4652Y-3.2159
X9.4676Y-7.2735
X9.4693Y-5.8754
X9.4744Y-6.0394
X9.4752Y-3.4129
X9.4781Y-5.493
X9.4784Y-5.8052
X9.4791Y-5.0984
X9.4791Y-5.1378
X9.4791Y-5.1772
X9.4791Y-5.2165
X9.4791Y-5.2559
X9.4791Y-5.2953
X9.4791Y-5.3346
X9.4791Y-5.374
X9.4791Y-5.4134
X9.4791Y-5.4528
X9.4791Y-5.7283
X9.4791Y-6.122
X9.4793Y-5.9454
X9.4842Y-5.5266
X9.4872Y-3.5579
X9.488Y-7.593
X9.4932Y-3.0389
X9.496Y-4.1915
X9.5007Y-3.3524
X9.508Y-3.8645
X9.5115Y-4.1425
X9.518Y-5.2565
X9.5182Y-5.8054
X9.5185Y-5.2165
X9.5185Y-5.0984
X9.5185Y-5.1378
X9.5185Y-5.1772
X9.5185Y-5.2953
X9.5185Y-5.3346
X9.5185Y-5.374
X9.5185Y-5.4134
X9.5185Y-5.4528
X9.5185Y-5.4921
X9.5185Y-5.7283
X9.5185Y-6.122
X9.5205Y-5.6287
X9.5225Y-4.3045
X9.5232Y-5.9446
X9.5238Y-5.526
X9.5238Y-6.0396
X9.5257Y-7.5493
X9.5318Y-5.8676
X9.532Y-3.9945
X9.5352Y-3.0863
X9.5363Y-7.1633
X9.5425Y-4.8305
X9.543Y-4.305
X9.543Y-6.782
X9.556Y-3.9855
X9.5585Y-3.5855
X9.5642Y-4.852
X9.5675Y-4.192
X9.573Y-6.782
X9.575Y-4.994
X9.5755Y-4.877
X9.5772Y-3.0389
X9.578Y-5.014
X9.579Y-3.862
X9.5805Y-5.047
X9.581Y-4.691
X9.5855Y-3.5995
X9.5858Y-4.852
X9.5869Y-4.3072
X9.5959Y-7.1639
X9.602Y-6.743
X9.6022Y-4.677
X9.6023Y-7.5928
X9.6035Y-3.9875
X9.615Y-4.317
X9.6155Y-7.4987
X9.6238Y-4.677
X9.6343Y-7.5012
X9.6351Y-7.1616
X9.638Y-4.192
X9.639Y-6.763
X9.646Y-4.65
X9.6495Y-3.861
X9.6552Y-7.5004
X9.6621Y-4.3034
X9.663Y-7.555
X9.6692Y-4.667
X9.67Y-6.729
X9.6746Y-7.5022
X9.676Y-5.072
X9.6792Y-3.1209
X9.6811Y-5.4663
X9.6908Y-4.667
X9.6937Y-7.1636
X9.695Y-5.071
X9.6967Y-7.5066
X9.705Y-4.648
X9.71Y-4.193
X9.7152Y-3.0859
X9.721Y-3.863
X9.7435Y-3.861
X9.7565Y-4.191
X9.757Y-5.134
X9.76Y-6.763
X9.7625Y-4.146
X9.7669Y-7.1552
X9.7685Y-3.8615
X9.776Y-5.176
X9.7805Y-5.0985
X9.787Y-4.979
X9.7895Y-7.485
X9.791Y-3.9935
X9.795Y-4.96
X9.795Y-5.006
X9.8009Y-4.1928
X9.8095Y-7.3902
X9.8114Y-7.2978
X9.812Y-6.676
X9.813Y-7.21
X9.813Y-7.482
X9.8165Y-3.9935
X9.8301Y-4.189
X9.8305Y-4.1435
X9.836Y-5.173
X9.836Y-7.1785
X9.838Y-3.863
X9.839Y-7.21
X9.8453Y-4.1752
X9.851Y-3.1327
X9.851Y-3.1543
X9.855Y-5.173
X9.8607Y-4.1598
X9.863Y-3.111
X9.863Y-3.173
X9.863Y-3.995
X9.8639Y-7.4792
X9.8845Y-4.1625
X9.8846Y-3.2992
X9.8846Y-3.3395
X9.885Y-3.863
X9.887Y-4.7835
X9.891Y-7.1809
X9.9Y-7.48
X9.9105Y-3.991
X9.915Y-4.43
X9.915Y-4.45
X9.918Y-5.137
X9.9197Y-3.2429
X9.9208Y-3.2245
X9.924Y-7.446
X9.925Y-7.409
X9.934Y-3.9945
X9.941Y-7.201
X9.945Y-4.402
X9.9457Y-4.1995
X9.946Y-5.099
X9.947Y-5.121
X9.9477Y-3.243
X9.9482Y-3.2249
X9.957Y-3.863
X9.966Y-3.1004
X9.967Y-7.359
X9.9725Y-4.1903
X9.9815Y-3.988
X9.9863Y-4.6776
X9.993Y-4.184
X9.993Y-3.1004
X10.002Y-6.4964
X10.003Y-3.9945
X10.012Y-7.513
X10.0135Y-4.612
X10.0175Y-4.3805
X10.0215Y-4.1955
X10.022Y-6.787
X10.0285Y-3.863
X10.039Y-4.1785
X10.0399Y-4.594
X10.0435Y-4.3805
X10.046Y-4.8
X10.053Y-6.6635
X10.0542Y-3.3799
X10.0615Y-4.594
X10.0624Y-3.068
X10.0632Y-3.0466
X10.0655Y-4.193
X10.066Y-4.8212
X10.0678Y-7.1099
X10.0747Y-3.3669
X10.0824Y-3.2453
X10.0827Y-3.2954
X10.0842Y-3.4064
X10.0844Y-3.1939
X10.0845Y-4.622
X10.0865Y-4.1845
X10.0883Y-3.11
X10.0885Y-4.0702
X10.0885Y-4.0918
X10.0893Y-6.6676
X10.0922Y-3.5644
X10.0946Y-6.295
X10.0985Y-3.8645
X10.101Y-7.117
X10.1013Y-4.6027
X10.1047Y-3.4619
X10.106Y-6.528
X10.1065Y-4.1625
X10.108Y-7.538
X10.1127Y-3.1041
X10.114Y-6.597
X10.115Y-7.187
X10.1167Y-4.5873
X10.1184Y-3.2954
X10.1197Y-3.2453
X10.1207Y-3.1939
X10.1225Y-3.9825
X10.127Y-7.331
X10.1299Y-4.811
X10.1351Y-3.1041
X10.1352Y-3.6064
X10.136Y-4.194
X10.136Y-5.835
X10.1378Y-4.9449
X10.138Y-4.569
X10.1455Y-4.4295
X10.1455Y-4.45
X10.1465Y-3.9925
X10.1496Y-4.7638
X10.1496Y-4.7953
X10.1496Y-5.0591
X10.1498Y-4.677
X10.1533Y-5.519
X10.1533Y-5.5406
X10.1533Y-5.6134
X10.1533Y-5.6351
X10.1544Y-3.1939
X10.1548Y-3.2954
X10.1558Y-3.2453
X10.1568Y-5.6716
X10.157Y-4.189
X10.1575Y-4.9528
X10.158Y-5.703
X10.16Y-5.734
X10.1617Y-3.4589
X10.1633Y-5.8286
X10.1663Y-5.5771
X10.1668Y-5.4821
X10.1672Y-3.5649
X10.169Y-3.865
X10.1693Y-4.563
X10.174Y-4.425
X10.1772Y-5.1614
X10.181Y-7.121
X10.1817Y-3.4079
X10.187Y-6.881
X10.1912Y-3.0419
X10.1935Y-4.004
X10.1935Y-4.169
X10.2027Y-3.6064
X10.2052Y-3.4349
X10.207Y-4.195
X10.2175Y-4.018
X10.2285Y-4.188
X10.2367Y-3.1044
X10.2387Y-3.0764
X10.2405Y-3.8645
X10.2407Y-3.5664
X10.26Y-4.7931
X10.263Y-4.913
X10.264Y-4.774
X10.2668Y-4.1573
X10.271Y-3.6285
X10.2815Y-4.0745
X10.2822Y-4.1727
X10.285Y-6.339
X10.287Y-5.164
X10.288Y-3.8645
X10.2887Y-3.4024
X10.2957Y-3.6903
X10.301Y-4.198
X10.3097Y-3.4024
X10.3102Y-3.4739
X10.312Y-3.9955
X10.3254Y-3.6311
X10.3322Y-3.1389
X10.3322Y-3.1779
X10.3327Y-3.3339
X10.3327Y-3.2174
X10.3327Y-3.2559
X10.3327Y-3.2944
X10.3355Y-3.996
X10.336Y-4.1645
X10.3382Y-3.4349
X10.3543Y-4.5472
X10.355Y-4.171
X10.3558Y-5.6556
X10.3563Y-5.4666
X10.3563Y-5.8446
X10.357Y-4.749
X10.3573Y-5.5611
X10.3578Y-5.7816
X10.3583Y-5.8131
X10.3585Y-3.864
X10.3608Y-5.7206
X10.3613Y-5.9396
X10.3661Y-4.6535
X10.3661Y-5.0354
X10.3661Y-5.126
X10.3677Y-4.6911
X10.3677Y-4.7128
X10.368Y-4.1885
X10.3697Y-4.9746
X10.3697Y-4.9963
X10.37Y-4.951
X10.3728Y-5.7066
X10.376Y-4.924
X10.3788Y-5.5032
X10.3788Y-5.5249
X10.3825Y-3.9955
X10.3885Y-4.19
X10.3888Y-5.5977
X10.3888Y-5.6194
X10.398Y-5.304
X10.4034Y-4.5817
X10.4034Y-4.5817
X10.4034Y-4.5817
X10.4065Y-3.9945
X10.4068Y-5.7826
X10.4162Y-4.89
X10.4187Y-4.597
X10.4187Y-4.597
X10.4187Y-4.597
X10.4196Y-4.191
X10.4226Y-5.3023
X10.4248Y-3.5963
X10.427Y-4.573
X10.429Y-4.4562
X10.429Y-4.4778
X10.4295Y-3.8625
X10.4378Y-4.89
X10.4379Y-5.3177
X10.4381Y-4.5104
X10.4408Y-3.5888
X10.4411Y-4.4384
X10.4441Y-4.9904
X10.4452Y-3.8024
X10.4472Y-4.1808
X10.4477Y-6.906
X10.4541Y-4.8524
X10.457Y-5.1952
X10.458Y-2.817
X10.465Y-4.2005
X10.466Y-5.0064
X10.466Y-5.028
X10.472Y-5.322
X10.4765Y-4.0524
X10.4895Y-4.177
X10.4918Y-4.0371
X10.5005Y-3.862
X10.5025Y-2.728
X10.5099Y-4.1819
X10.5127Y-2.6679
X10.518Y-5.321
X10.5249Y-3.1363
X10.5249Y-3.1558
X10.525Y-4.0015
X10.5254Y-3.0968
X10.5254Y-3.1158
X10.5254Y-3.1758
X10.529Y-5.133
X10.5345Y-5.8451
X10.537Y-4.189
X10.5379Y-3.0773
X10.538Y-2.9993
X10.543Y-4.869
X10.5485Y-3.999
X10.554Y-5.313
X10.556Y-5.131
X10.562Y-5.607
X10.565Y-6.172
X10.57Y-3.023
X10.571Y-3.862
X10.5748Y-5.2679
X10.5748Y-5.2896
X10.577Y-4.886
X10.58Y-4.163
X10.5815Y-5.8494
X10.5836Y-5.1632
X10.5845Y-4.1825
X10.5866Y-7.3692
X10.5898Y-6.2274
X10.5939Y-2.9713
X10.5959Y-2.9423
X10.598Y-2.7695
X10.6Y-5.007
X10.6013Y-3.6148
X10.602Y-5.249
X10.6021Y-4.6464
X10.6065Y-4.183
X10.6126Y-7.2696
X10.613Y-3.331
X10.614Y-3.295
X10.6142Y-4.623
X10.6159Y-3.1533
X10.6161Y-4.9934
X10.6169Y-3.0943
X10.6169Y-3.1243
X10.627Y-6.462
X10.6315Y-4.182
X10.6358Y-4.623
X10.638Y-7.383
X10.6455Y-2.7705
X10.6459Y-3.1533
X10.6469Y-3.0943
X10.6469Y-3.1243
X10.6549Y-2.9093
X10.6549Y-3.2363
X10.655Y-4.182
X10.6571Y-4.6054
X10.6636Y-7.3772
X10.6665Y-3.862
X10.673Y-3.237
X10.6749Y-3.0113
X10.6759Y-3.0933
X10.6759Y-3.1233
X10.6759Y-3.1533
X10.676Y-6.8582
X10.6768Y-7.0592
X10.6805Y-3.458
X10.6895Y-3.4785
X10.6939Y-3.0153
X10.7Y-3.239
X10.7Y-4.401
X10.7174Y-6.7576
X10.718Y-6.696
X10.737Y-2.743
X10.739Y-6.302
X10.742Y-3.945
X10.743Y-3.883
X10.744Y-6.657
X10.744Y-6.6786
X10.744Y-6.7168
X10.744Y-6.7385
X10.7467Y-2.7593
X10.748Y-3.2776
X10.7569Y-3.0968
X10.7569Y-3.1163
X10.7569Y-3.1368
X10.7574Y-3.0768
X10.763Y-6.617
X10.765Y-6.518
X10.768Y-3.183
X10.77Y-3.215
X10.7756Y-7.813
X10.78Y-6.322
X10.79Y-6.455
X10.7924Y-7.0576
X10.793Y-6.8576
X10.81Y-3.879
X10.8123Y-4.3402
X10.8143Y-7.975
X10.8153Y-4.1447
X10.8183Y-4.2522
X10.826Y-6.554
X10.8271Y-3.1102
X10.855Y-6.503
X10.8552Y-7.7648
X10.862Y-6.776
X10.864Y-6.756
X10.865Y-6.58
X10.865Y-6.697
X10.866Y-6.797
X10.8712Y-5.3226
X10.8719Y-7.9733
X10.8775Y-3.6603
X10.8813Y-4.2197
X10.8828Y-4.2542
X10.8838Y-4.2847
X10.8989Y-5.3155
X10.9065Y-3.7773
X10.9201Y-5.3155
X10.9213Y-4.2197
X10.9228Y-4.2542
X10.9238Y-4.2847
X10.9243Y-4.1417
X10.9243Y-4.3552
X10.937Y-6.851
X10.9408Y-4.4262
X10.9455Y-3.8259
X10.946Y-6.41
X10.947Y-6.431
X10.9512Y-5.3126
X10.9585Y-3.8593
X10.9586Y-6.2904
X10.96Y-6.446
X10.9608Y-4.2197
X10.9623Y-4.2542
X10.9633Y-4.2847
X10.967Y-3.592
X10.9697Y-5.2535
X10.9782Y-6.3076
X10.9793Y-4.4097
X10.9794Y-5.2782
X10.9835Y-3.9083
X10.9835Y-3.9873
X10.9888Y-4.1517
X10.9913Y-5.2535
X10.999Y-6.8
X10.9999Y-6.3076
X11.0115Y-3.9873
X11.0135Y-3.8013
X11.0188Y-6.2902
X11.019Y-6.448
X11.0288Y-4.2522
X11.0378Y-4.0687
X11.0382Y-6.31
X11.048Y-3.498
X11.059Y-6.789
X11.0598Y-6.31
X11.0662Y-2.7588
X11.0771Y-6.965
X11.078Y-6.448
X11.0786Y-6.2908
X11.0834Y-4.269
X11.0848Y-4.2312
X11.0872Y-6.9912
X11.0968Y-6.31
X11.0988Y-6.965
X11.1085Y-4.0293
X11.1135Y-4.1243
X11.1153Y-3.6032
X11.117Y-6.796
X11.1184Y-6.31
X11.1343Y-3.5492
X11.1345Y-4.1243
X11.137Y-6.448
X11.1412Y-6.2906
X11.1625Y-4.0303
X11.1635Y-4.1283
X11.1643Y-3.5502
X11.166Y-2.7588
X11.1675Y-3.6283
X11.1675Y-3.9603
X11.177Y-6.798
X11.1867Y-3.54
X11.192Y-6.896
X11.1945Y-4.1273
X11.196Y-6.446
X11.196Y-7.092
X11.197Y-6.798
X11.199Y-3.42
X11.202Y-7.051
X11.2084Y-3.54
X11.209Y-6.3784
X11.2105Y-4.0293
X11.2229Y-4.1357
X11.224Y-6.85
X11.231Y-6.44
X11.232Y-6.3774
X11.232Y-6.3774
X11.232Y-6.3774
X11.2465Y-4.0303
X11.2536Y-6.3774
X11.2536Y-6.3774
X11.2536Y-6.3774
X11.254Y-6.83
X11.2595Y-3.9613
X11.2655Y-4.0583
X11.2655Y-4.0853
X11.2665Y-4.0263
X11.27Y-6.796
X11.271Y-6.5
X11.271Y-6.54
X11.275Y-6.6
X11.2755Y-3.6193
X11.2763Y-3.5493
X11.278Y-6.75
X11.2808Y-6.3792
X11.288Y-6.481
X11.292Y-6.659
X11.3053Y-3.5493
X11.3055Y-4.0253
X11.3145Y-4.3955
X11.32Y-3.6023
X11.321Y-7.3752
X11.322Y-7.4902
X11.3255Y-4.0393
X11.3293Y-3.9586
X11.334Y-6.2845
X11.335Y-6.411
X11.341Y-3.6132
X11.3445Y-4.0273
X11.3455Y-3.7233
X11.351Y-6.741
X11.354Y-6.347
X11.3563Y-3.6285
X11.3595Y-4.1553
X11.3642Y-5.3084
X11.3655Y-4.0373
X11.3748Y-4.2537
X11.3808Y-3.6227
X11.3814Y-6.5972
X11.3826Y-6.535
X11.3828Y-6.6694
X11.4Y-6.619
X11.4Y-6.6407
X11.4038Y-6.5589
X11.4038Y-6.5806
X11.4065Y-4.0853
X11.417Y-6.999
X11.417Y-7.156
X11.4203Y-6.4689
X11.424Y-3.539
X11.424Y-4.265
X11.4315Y-3.8274
X11.44Y-3.7866
X11.4545Y-3.8473
X11.486Y-4.18
X11.4935Y-3.7563
X11.5193Y-6.4569
X11.5215Y-3.7573
X11.5253Y-6.2839
X11.5253Y-6.3469
X11.5265Y-4.2223
X11.5275Y-6.6535
X11.5303Y-6.3969
X11.5355Y-3.9693
X11.549Y-4.254
X11.5505Y-3.9243
X11.551Y-6.635
X11.552Y-4.063
X11.5554Y-7.5262
X11.5575Y-3.6483
X11.564Y-6.868
X11.5662Y-6.5736
X11.567Y-6.5462
X11.577Y-6.92
X11.5834Y-7.3402
X11.5861Y-4.1006
X11.5864Y-4.1678
X11.607Y-6.984
X11.6176Y-2.9724
X11.6215Y-2.9475
X11.626Y-7.078
X11.627Y-7.1395
X11.6303Y-6.3139
X11.6716Y-6.5148
X11.706Y-6.747
X11.708Y-6.6295
X11.7085Y-6.6915
X11.715Y-7.1385
X11.717Y-6.965
X11.717Y-7.0785
X11.72Y-6.846
X11.72Y-6.9065
X11.7404Y-3.5817
X11.767Y-3.649
X11.779Y-3.581
X11.7995Y-7.4475
X11.8015Y-7.796
X11.855Y-7.08
X11.855Y-7.1385
X11.8555Y-7.569
X11.856Y-6.8465
X11.856Y-6.906
X11.856Y-6.9655
X11.8575Y-7.2115
T2
X5.095Y-4.517
X5.204Y-4.493
X5.232Y-4.627
X5.323Y-6.9185
X5.36Y-6.8775
X5.708Y-5.231
X5.824Y-5.339
X5.896Y-5.249
X5.908Y-4.461
X5.908Y-4.51
X5.908Y-4.558
X5.909Y-4.625
X5.914Y-5.18
X5.915Y-5.207
X5.943Y-8.0647
X5.945Y-5.18
X5.946Y-5.206
X5.957Y-4.461
X5.957Y-4.51
X5.957Y-4.558
X5.958Y-4.625
X5.975Y-5.18
X5.976Y-5.206
X5.979Y-8.0647
X6.004Y-5.18
X6.004Y-5.206
X6.012Y-8.0657
X6.016Y-4.46
X6.016Y-4.509
X6.016Y-4.557
X6.017Y-4.624
X6.065Y-4.46
X6.065Y-4.509
X6.065Y-4.557
X6.066Y-4.624
X6.195Y-3.906
X6.196Y-3.932
X6.2005Y-8.251
X6.2015Y-8.154
X6.2015Y-8.187
X6.2015Y-8.218
X6.224Y-3.906
X6.224Y-3.932
X6.2425Y-8.252
X6.2435Y-8.155
X6.2435Y-8.188
X6.2435Y-8.219
X6.253Y-3.906
X6.254Y-3.932
X6.2815Y-8.253
X6.2825Y-8.156
X6.2825Y-8.189
X6.2825Y-8.22
X6.302Y-7.689
X6.342Y-7.689
X6.382Y-7.689
X6.382Y-7.729
X6.382Y-7.769
X6.382Y-7.809
X6.422Y-7.689
X6.422Y-7.729
X6.422Y-7.769
X6.422Y-7.809
X6.462Y-7.689
X6.462Y-7.729
X6.462Y-7.769
X6.462Y-7.809
X6.5945Y-5.039
X6.7845Y-5.1015
X6.785Y-5.271
X6.834Y-5.271
X6.8345Y-5.223
X6.835Y-5.1015
X6.848Y-5.395
X6.8725Y-5.1015
X6.876Y-5.223
X6.8775Y-5.271
X6.9185Y-5.1015
X6.919Y-5.223
X6.9205Y-5.271
X6.951Y-5.271
X6.9515Y-5.223
X6.952Y-5.1475
X6.953Y-5.1015
X7.0205Y-4.7345
X7.0265Y-4.7975
X7.133Y-7.583
X7.134Y-7.622
X7.155Y-4.585
X7.2261Y-4.7782
X7.274Y-7.837
X7.274Y-7.912
X7.5771Y-7.5255
X7.6255Y-4.7675
X7.675Y-7.7757
X7.679Y-7.67
X7.6795Y-4.9157
X7.68Y-5.0152
X7.8071Y-5.1924
X7.8071Y-5.2204
X7.8081Y-5.1644
X7.8411Y-5.1924
X7.8411Y-5.2204
X7.8421Y-5.1644
X8.1073Y-5.9223
X8.1423Y-6.1015
X8.1493Y-6.0483
X8.1543Y-5.9873
X8.2267Y-5.2376
X8.2281Y-5.2867
X8.2281Y-5.345
X8.2281Y-5.4041
X8.2721Y-5.191
X8.279Y-5.108
X8.279Y-5.136
X8.28Y-5.08
X8.3173Y-5.8643
X8.3183Y-5.9796
X8.3193Y-5.9253
X8.3193Y-6.0298
X8.3203Y-6.0603
X8.3255Y-7.3835
X8.3255Y-7.4355
X8.3265Y-7.487
X8.3275Y-7.5435
X8.328Y-7.607
X8.331Y-7.7295
X8.3315Y-7.667
X8.383Y-7.545
X8.3891Y-5.323
X8.3891Y-5.401
X8.4485Y-7.5455
X8.531Y-7.088
X8.531Y-7.128
X8.551Y-7.048
X8.551Y-7.168
X8.591Y-7.048
X8.591Y-7.168
X8.631Y-7.048
X8.631Y-7.088
X8.631Y-7.128
X8.631Y-7.168
X8.662Y-7.569
X8.682Y-7.533
X8.694Y-6.942
X8.74Y-7.964
X8.747Y-6.896
X8.778Y-7.263
X8.801Y-7.693
X8.8045Y-7.796
X8.82Y-7.6067
X8.821Y-6.728
X8.821Y-6.768
X8.827Y-6.898
X8.8475Y-7.853
X8.851Y-6.698
X8.851Y-6.808
X8.881Y-6.698
X8.881Y-6.808
X8.883Y-4.946
X8.9055Y-7.795
X8.906Y-7.695
X8.9095Y-7.742
X8.911Y-7.263
X8.9135Y-7.857
X8.914Y-6.898
X8.921Y-6.728
X8.921Y-6.768
X8.9328Y-6.377
X8.939Y-7.536
X8.9441Y-6.2117
X8.9664Y-6.377
X8.967Y-6.945
X8.9685Y-7.695
X8.9695Y-7.733
X8.9865Y-7.856
X9.0051Y-6.2117
X9.0051Y-6.3767
X9.011Y-6.592
X9.0125Y-7.622
X9.0125Y-7.652
X9.035Y-6.947
X9.0425Y-7.622
X9.0425Y-7.652
X9.05Y-6.555
X9.0554Y-6.2826
X9.061Y-6.946
X9.0685Y-7.854
X9.0725Y-7.622
X9.0725Y-7.652
X9.075Y-6.89
X9.085Y-7.101
X9.086Y-7.127
X9.086Y-7.152
X9.086Y-7.18
X9.088Y-6.946
X9.089Y-4.467
X9.089Y-4.523
X9.0921Y-6.1457
X9.0921Y-6.1747
X9.099Y-7.275
X9.1025Y-7.622
X9.1025Y-7.652
X9.103Y-6.534
X9.113Y-3.598
X9.113Y-7.102
X9.114Y-6.946
X9.114Y-7.128
X9.114Y-7.153
X9.114Y-7.181
X9.122Y-5.045
X9.1231Y-6.1457
X9.1231Y-6.1747
X9.125Y-7.274
X9.1325Y-7.622
X9.1325Y-7.652
X9.134Y-6.546
X9.1361Y-6.3957
X9.1371Y-6.3567
X9.14Y-7.102
X9.141Y-7.128
X9.141Y-7.153
X9.141Y-7.181
X9.143Y-6.946
X9.152Y-7.274
X9.1531Y-6.1457
X9.1531Y-6.1747
X9.1625Y-7.622
X9.1625Y-7.652
X9.168Y-7.1
X9.169Y-6.946
X9.169Y-7.126
X9.169Y-7.151
X9.169Y-7.179
X9.1742Y-3.1529
X9.1761Y-6.3957
X9.1771Y-6.3567
X9.178Y-7.274
X9.1782Y-3.0479
X9.184Y-6.587
X9.186Y-6.889
X9.1925Y-7.622
X9.1925Y-7.652
X9.2015Y-4.9627
X9.2033Y-4.8263
X9.207Y-7.274
X9.2071Y-6.514
X9.2191Y-6.3957
X9.2201Y-6.3567
X9.233Y-7.274
X9.2331Y-6.514
X9.2651Y-6.514
X9.2661Y-6.488
X9.2702Y-3.0849
X9.271Y-6.567
X9.2764Y-3.1422
X9.2812Y-3.7796
X9.2833Y-4.9731
X9.2835Y-4.8143
X9.2911Y-6.16
X9.2911Y-6.514
X9.2921Y-6.488
X9.297Y-6.567
X9.3061Y-6.338
X9.312Y-7.592
X9.319Y-6.721
X9.32Y-6.747
X9.32Y-6.772
X9.32Y-6.8
X9.324Y-6.567
X9.326Y-7.192
X9.3331Y-6.338
X9.334Y-6.897
X9.341Y-6.4495
X9.347Y-6.722
X9.348Y-6.748
X9.348Y-6.773
X9.348Y-6.801
X9.35Y-6.567
X9.36Y-6.896
X9.3601Y-6.338
X9.3645Y-4.8243
X9.3645Y-4.9657
X9.3702Y-6.4492
X9.374Y-6.722
X9.375Y-6.748
X9.375Y-6.773
X9.375Y-6.801
X9.379Y-6.567
X9.387Y-6.896
X9.3891Y-6.338
X9.394Y-7.526
X9.402Y-6.72
X9.403Y-6.746
X9.403Y-6.771
X9.403Y-6.799
X9.405Y-6.567
X9.413Y-6.896
X9.4161Y-6.338
X9.427Y-7.228
X9.4383Y-6.4464
X9.4386Y-6.4792
X9.4387Y-6.3722
X9.439Y-6.405
X9.44Y-6.567
X9.442Y-6.896
X9.4439Y-4.8143
X9.445Y-4.97
X9.448Y-7.481
X9.4633Y-6.3502
X9.4654Y-6.4905
X9.466Y-6.567
X9.468Y-6.896
X9.493Y-6.567
X9.4933Y-6.3496
X9.497Y-6.21
X9.4982Y-6.4902
X9.503Y-7.47
X9.5112Y-7.5807
X9.519Y-6.567
X9.5227Y-6.3498
X9.524Y-6.4448
X9.5241Y-6.4064
X9.5242Y-6.3784
X9.5242Y-6.4778
X9.5416Y-5.7237
X9.5476Y-5.6359
X9.548Y-6.567
X9.555Y-7.254
X9.555Y-7.307
X9.555Y-7.361
X9.555Y-7.414
X9.5551Y-6.109
X9.5571Y-6.017
X9.559Y-5.3335
X9.559Y-5.4005
X9.559Y-5.464
X9.5591Y-5.512
X9.574Y-6.567
X9.583Y-6.3086
X9.6Y-3.7792
X9.604Y-6.207
X9.6092Y-6.4936
X9.61Y-7.255
X9.61Y-7.308
X9.61Y-7.362
X9.61Y-7.415
X9.636Y-7.527
X9.6452Y-6.3426
X9.647Y-4.999
X9.655Y-3.6032
X9.662Y-7.254
X9.662Y-7.307
X9.663Y-7.363
X9.663Y-7.416
X9.6804Y-5.7398
X9.6811Y-5.416
X9.6821Y-5.4945
X9.6821Y-5.5395
X9.69Y-3.6032
X9.6905Y-6.2085
X9.6971Y-6.017
X9.6975Y-6.1085
X9.707Y-5.6514
X9.717Y-7.255
X9.717Y-7.308
X9.718Y-7.364
X9.718Y-7.417
X9.72Y-7.089
X9.724Y-5.01
X9.7334Y-6.347
X9.7539Y-3.4045
X9.754Y-6.88
X9.754Y-6.917
X9.755Y-6.802
X9.755Y-6.842
X9.755Y-6.948
X9.759Y-3.5922
X9.8Y-6.32
X9.8Y-6.347
X9.817Y-5.11
X9.825Y-3.5922
X9.827Y-6.32
X9.827Y-6.347
X9.829Y-7.352
X9.837Y-6.799
X9.837Y-6.826
X9.839Y-6.854
X9.839Y-6.882
X9.854Y-6.32
X9.854Y-6.347
X9.864Y-7.118
X9.865Y-6.799
X9.865Y-6.826
X9.867Y-6.854
X9.867Y-6.882
X9.872Y-4.857
X9.873Y-5.11
X9.883Y-6.32
X9.883Y-6.347
X9.887Y-4.7385
X9.889Y-3.5912
X9.89Y-3.5602
X9.89Y-6.799
X9.89Y-6.826
X9.892Y-6.854
X9.892Y-6.882
X9.896Y-7.112
X9.91Y-6.32
X9.91Y-6.347
X9.916Y-6.798
X9.916Y-6.825
X9.918Y-6.853
X9.918Y-6.881
X9.923Y-7.112
X9.9308Y-4.6535
X9.937Y-6.32
X9.937Y-6.347
X9.951Y-3.5562
X9.951Y-3.5882
X9.952Y-7.112
X9.952Y-3.7502
X9.963Y-6.32
X9.963Y-6.347
X9.981Y-7.112
X9.989Y-3.5562
X9.989Y-3.5862
X9.99Y-6.32
X9.99Y-6.347
X10.004Y-4.439
X10.0152Y-3.7441
X10.021Y-3.5572
X10.021Y-3.5862
X10.0306Y-4.7229
X10.06Y-4.439
X10.066Y-6.982
X10.066Y-7.017
X10.067Y-6.746
X10.067Y-6.777
X10.067Y-6.811
X10.067Y-6.847
X10.067Y-6.883
X10.067Y-6.948
X10.068Y-6.915
X10.077Y-4.872
X10.1149Y-6.2232
X10.1159Y-6.2522
X10.128Y-6.649
X10.1378Y-5.7983
X10.138Y-6.976
X10.138Y-7.011
X10.139Y-6.74
X10.139Y-6.771
X10.139Y-6.805
X10.139Y-6.841
X10.139Y-6.877
X10.139Y-6.942
X10.14Y-6.909
X10.1439Y-6.2232
X10.1439Y-6.2502
X10.151Y-6.057
X10.156Y-5.95
X10.1588Y-5.7661
X10.1709Y-6.2232
X10.1709Y-6.2502
X10.1858Y-6.3993
X10.1858Y-6.4483
X10.1858Y-6.4973
X10.1979Y-6.2232
X10.1979Y-6.2502
X10.2418Y-6.4963
X10.2428Y-6.3993
X10.2428Y-6.4483
X10.289Y-6.871
X10.29Y-6.811
X10.29Y-6.842
X10.313Y-6.052
X10.317Y-6.871
X10.318Y-6.81
X10.318Y-6.841
X10.3213Y-3.7908
X10.3213Y-3.8278
X10.3218Y-3.7543
X10.3284Y-6.2938
X10.3284Y-6.3328
X10.3304Y-6.2528
X10.343Y-6.87
X10.344Y-6.81
X10.344Y-6.841
X10.35Y-7.065
X10.351Y-7.036
X10.3558Y-3.7913
X10.3558Y-3.8283
X10.356Y-3.7542
X10.3614Y-6.2508
X10.3673Y-5.7496
X10.37Y-6.81
X10.37Y-6.841
X10.37Y-6.87
X10.3874Y-3.1738
X10.3914Y-6.2508
X10.392Y-7.036
X10.392Y-7.064
X10.4214Y-6.2508
X10.4293Y-3.6778
X10.4293Y-3.7458
X10.4298Y-3.7093
X10.4494Y-6.2528
X10.4504Y-6.2968
X10.4509Y-6.3313
X10.4534Y-6.4798
X10.455Y-6.574
X10.4553Y-5.8296
X10.463Y-6.753
X10.463Y-6.796
X10.4638Y-3.6783
X10.4638Y-3.7463
X10.464Y-3.7092
X10.464Y-6.833
X10.465Y-6.87
X10.503Y-6.835
X10.546Y-4.978
X10.546Y-5.034
X10.549Y-6.396
X10.5695Y-5.576
X10.5813Y-5.6946
X10.6055Y-5.935
X10.6082Y-3.6776
X10.611Y-5.6785
X10.613Y-5.837
X10.6159Y-4.8197
X10.618Y-4.881
X10.619Y-4.849
X10.6293Y-5.7141
X10.696Y-6.508
X10.703Y-4.437
X10.7113Y-4.1442
X10.7113Y-4.2652
X10.7113Y-4.2922
X10.7113Y-4.3192
X10.7113Y-4.3492
X10.7117Y-4.6412
X10.7123Y-4.1712
X10.7123Y-4.1992
X10.7123Y-4.2272
X10.7174Y-7.6517
X10.7179Y-7.6825
X10.7184Y-7.5851
X10.7189Y-7.6159
X10.7256Y-7.3323
X10.7261Y-7.3631
X10.7264Y-7.2982
X10.7272Y-7.2657
X10.736Y-6.598
X10.7383Y-4.1442
X10.7383Y-4.2652
X10.7383Y-4.2922
X10.7383Y-4.3192
X10.7383Y-4.3492
X10.7393Y-4.1712
X10.7393Y-4.1992
X10.7393Y-4.2272
X10.7517Y-7.652
X10.7522Y-7.6828
X10.7527Y-7.5854
X10.7532Y-7.6162
X10.7627Y-7.3326
X10.7632Y-7.3634
X10.7644Y-7.2976
X10.7652Y-7.2651
X10.7923Y-7.652
X10.7928Y-7.6828
X10.7933Y-7.5854
X10.7938Y-7.6162
X10.7996Y-7.2982
X10.8004Y-7.2657
X10.8005Y-7.3326
X10.801Y-7.3634
X10.816Y-6.432
X10.8299Y-7.652
X10.8304Y-7.6828
X10.8309Y-7.5854
X10.8314Y-7.6162
X10.8381Y-7.3326
X10.8386Y-7.3634
X10.8402Y-7.2982
X10.841Y-7.2657
X10.8705Y-7.652
X10.871Y-7.6828
X10.8715Y-7.5854
X10.872Y-7.6162
X10.8787Y-7.3326
X10.8792Y-7.3634
X10.88Y-7.2656
X10.88Y-7.2997
X10.9178Y-7.363
X10.9182Y-7.3326
X10.9206Y-7.2656
X10.9206Y-7.2997
X10.9576Y-7.2984
X10.9584Y-7.264
X10.9584Y-7.363
X10.9588Y-7.3326
X10.9789Y-6.6292
X10.9799Y-6.5552
X10.9799Y-6.6842
X10.9809Y-6.7412
X11.0105Y-3.9123
X11.0349Y-6.6292
X11.0359Y-6.5552
X11.0359Y-6.6842
X11.0369Y-6.7412
X11.0445Y-3.7523
X11.0959Y-6.6292
X11.0969Y-6.5552
X11.0969Y-6.6842
X11.0979Y-6.7412
X11.1058Y-4.2137
X11.1058Y-4.3262
X11.1068Y-4.2407
X11.1068Y-4.2687
X11.1068Y-4.2967
X11.1068Y-4.3532
X11.1068Y-4.3812
X11.1068Y-4.4092
X11.1343Y-4.3062
X11.1353Y-4.1912
X11.1353Y-4.3332
X11.1353Y-4.3612
X11.1353Y-4.3892
X11.1363Y-4.2182
X11.1363Y-4.2462
X11.1363Y-4.2742
X11.1519Y-6.6292
X11.1529Y-6.5552
X11.1529Y-6.6842
X11.1539Y-6.7412
X11.1638Y-7.1572
X11.187Y-3.8245
X11.187Y-3.891
X11.1959Y-4.2189
X11.2045Y-3.7683
X11.2465Y-3.7683
X11.2465Y-3.8243
X11.2465Y-3.8908
X11.3035Y-3.7693
X11.3035Y-3.8235
X11.3035Y-3.89
X11.414Y-5.315
X11.4855Y-4.0133
X11.4885Y-3.9813
X11.5095Y-3.8333
X11.5145Y-4.0133
X11.5265Y-4.1983
X11.7226Y-2.7456
T3
X11.4459Y-2.9249
X11.4459Y-3.3651
X11.5046Y-2.9249
X11.5046Y-3.3651
T6
X10.2386Y-7.258
X10.4354Y-7.258
X10.2366Y-7.367
X10.4334Y-7.367
T7
X11.066Y-2.905
X11.066Y-2.985
X11.066Y-3.0649
X11.066Y-3.225
X11.066Y-3.305
X11.066Y-3.385
X11.166Y-2.9452
X11.166Y-3.0251
X11.166Y-3.105
X11.166Y-3.185
X11.166Y-3.265
X11.166Y-3.345
X11.7608Y-3.7088
X11.7608Y-3.7875
X11.7608Y-3.8663
X11.7608Y-3.945
X11.7608Y-4.0237
X11.7608Y-4.1025
X11.7608Y-4.1812
X11.8395Y-3.7088
X11.8395Y-3.7875
X11.8395Y-3.8663
X11.8395Y-3.945
X11.8395Y-4.0237
X11.8395Y-4.1025
X11.8395Y-4.1812
T8
X8.109Y-8.234
X8.109Y-8.334
X8.209Y-8.234
X8.209Y-8.334
X8.309Y-8.234
X8.309Y-8.334
X8.409Y-8.234
X8.409Y-8.334
X8.509Y-8.234
X8.509Y-8.334
X8.609Y-8.234
X8.609Y-8.334
X9.303Y-2.648
X9.303Y-2.748
X9.403Y-2.648
X9.403Y-2.748
X9.503Y-2.648
X9.503Y-2.748
X9.603Y-2.648
X9.603Y-2.748
X9.703Y-2.648
X9.703Y-2.748
X9.803Y-2.648
X9.803Y-2.748
X8.272Y-2.647
X8.272Y-2.747
X8.372Y-2.647
X8.372Y-2.747
X8.472Y-2.647
X8.472Y-2.747
X8.572Y-2.647
X8.572Y-2.747
X8.672Y-2.647
X8.672Y-2.747
X8.772Y-2.647
X8.772Y-2.747
T9
X9.747Y-7.577
X9.847Y-7.577
X9.947Y-7.577
X10.047Y-7.577
X5.0028Y-5.4864
X5.0028Y-5.6636
T10
X8.4176Y-7.6504
X8.4176Y-7.7504
X8.4176Y-7.8504
X8.4158Y-7.2602
X8.4158Y-7.3602
X8.4158Y-7.4602
T11
X10.0977Y-4.765
X10.0977Y-5.0485
X10.2158Y-4.4776
X10.393Y-5.2256
X10.637Y-4.4776
X10.8142Y-5.2256
X10.9914Y-4.4776
X11.1685Y-5.2256
X11.3457Y-4.4776
X11.5229Y-5.2256
X11.7Y-4.4776
X11.8772Y-5.2256
X10.0985Y-5.6716
X10.0985Y-5.9551
X10.2166Y-5.3842
X10.3938Y-6.1322
X10.6378Y-5.3842
X10.815Y-6.1322
X10.9922Y-5.3842
X11.1693Y-6.1322
X11.3465Y-5.3842
X11.5237Y-6.1322
X11.7008Y-5.3842
X11.878Y-6.1322
T12
X10.966Y-2.905
X10.966Y-3.005
X10.966Y-3.285
X10.966Y-3.385
T13
X9.061Y-8.1497
X9.161Y-8.1497
X9.261Y-8.1497
X9.361Y-8.1497
X10.561Y-8.1497
X10.661Y-8.1497
X10.761Y-8.1497
X10.861Y-8.1497
X10.961Y-8.1497
X11.061Y-8.1497
T14
X5.1012Y-5.4372
X5.1012Y-5.7128
T15
X11.891Y-2.8275
X11.891Y-3.4625
T16
X11.2368Y-7.683
X11.3935Y-7.683
T17
X5.2864Y-5.3036
X7.436Y-8.215
X5.2864Y-5.8331
X5.2864Y-8.0595
X7.436Y-5.4591
X7.4478Y-2.9788
X5.2864Y-3.0772
X7.436Y-5.7347
T18
X11.1457Y-7.387
X10.2495Y-2.7354
X7.9488Y-2.7354
X9.5925Y-8.3161
T4
G00X5.0353Y-4.4727
M15
G01X5.0511Y-4.4727
M16
G05
G00X5.0353Y-4.6633
M15
G01X5.0511Y-4.6633
M16
G05
T5
G00X4.9153Y-4.4605
M15
G01X4.9349Y-4.4605
M16
G05
G00X4.9153Y-4.6755
M15
G01X4.9349Y-4.6755
M16
G05
T9
G00X11.4244Y-8.1547
M15
G01X11.4244Y-8.0523
M16
G05
G00X11.5976Y-7.9066
M15
G01X11.4953Y-7.9066
M16
G05
G00X11.6685Y-8.0523
M15
G01X11.6685Y-8.1547
M16
G05
T0
M30
